<?xml version="1.0" encoding="UTF-8"?>
<!DOCTYPE svg PUBLIC "-//W3C//DTD SVG 1.1//EN" "http://www.w3.org/Graphics/SVG/1.1/DTD/svg11.dtd">
<!-- Creator: CorelDRAW X6 -->
<svg xmlns="http://www.w3.org/2000/svg" xml:space="preserve" width="480mm" height="678.857mm" version="1.1" style="shape-rendering:geometricPrecision; text-rendering:geometricPrecision; image-rendering:optimizeQuality; fill-rule:evenodd; clip-rule:evenodd"
viewBox="0 0 48000 67886"
 xmlns:xlink="http://www.w3.org/1999/xlink"
 xmlns:svg="http://www.w3.org/2000/svg"
 enable-background="new 0 0 700 480">
 <defs>
  <style type="text/css">
   <![CDATA[
    .str1 {stroke:#2A2A29;stroke-width:60.48}
    .str0 {stroke:#919191;stroke-width:60.48}
    .fil0 {fill:none}
    .fil2 {fill:#68A5F1}
    .fil1 {fill:#0080D1;fill-opacity:0.949020}
   ]]>
  </style>
 </defs>
 <g id="Слой_x0020_1">
  <metadata id="CorelCorpID_0Corel-Layer"/>
  <polygon id="backgroundrect" class="fil0" points="2833,48457 45167,48457 45167,19429 2833,19429 "/>
  <path id="path58643" class="fil0 str0" d="M12777 22922c6,77 14,143 -60,180 -54,27 -85,70 -120,104 -49,50 -70,71 -120,120 -37,38 -7,143 -45,180 -64,65 10,144 30,165 57,57 102,88 120,180 16,81 -51,117 -75,165 -28,56 -15,142 -15,209 0,75 0,150 0,225 0,121 19,105 135,105 78,0 156,-2 225,15 80,20 165,-47 165,60 0,104 25,115 45,195 20,83 63,113 149,134 71,18 120,110 150,150 46,61 23,113 75,165 68,68 62,52 0,135 -14,19 -168,8 -195,15 -46,11 -1,204 0,210 2,7 205,0 225,0 47,0 30,171 30,209 0,105 -18,105 -120,105 -46,0 -30,155 -30,195 0,93 15,150 -45,210 -52,52 -115,25 -180,90 -64,64 -134,60 -134,150 0,80 15,135 15,224 0,114 -17,106 -75,165 -46,46 -180,0 -210,-15 -75,-37 -59,-67 -150,-90 -92,-23 -100,-55 -180,-75 -69,-17 -167,0 -239,0 -95,0 -133,-16 -195,15 -23,12 -21,173 -30,210 -16,64 -136,1 -195,30 -83,42 58,135 -90,135 -81,0 -165,-32 -165,60 0,44 -113,106 -134,150 -31,60 17,173 30,224 19,80 74,124 74,165 0,49 -135,45 -179,45 -87,0 -100,-40 -180,-60 -66,-16 -157,0 -225,0 -71,0 -161,3 -210,15 -77,19 -104,30 -164,0 -45,-22 -78,-108 -105,-135 -55,-54 -80,-79 -120,-120 -61,-60 -74,-30 -165,-30 -101,0 -105,-23 -105,-119 0,-116 8,-113 75,-180 62,-62 87,-84 -15,-135 -82,-41 -70,-69 -90,-150 -22,-90 -147,-61 -150,-60 -30,8 -123,57 -194,75 -59,15 -78,-92 -120,-135 -33,-33 -22,-11 -60,-30"/>
  <path id="path58645" class="fil0 str0" d="M11324 27836c-91,-91 -85,159 -75,180 31,63 141,-2 209,15 64,16 1,136 30,195 32,62 -74,125 -74,194 0,100 37,119 0,195 -30,60 99,40 119,120 18,71 100,45 180,45 125,0 23,105 135,105 31,0 66,-13 75,-15 35,0 36,-98 36,-122 0,-34 18,-46 18,-85 0,-28 6,-61 6,-91 0,-37 12,-55 43,-79 23,-17 40,-33 73,-24 26,6 42,53 49,67 7,13 85,6 103,6 37,0 73,0 110,0 39,0 75,-1 97,-13 37,-18 44,-24 103,-24 59,0 144,7 183,-12 20,-10 42,-52 61,-67 34,-26 70,-40 97,-67 25,-25 46,-32 79,-49 40,-19 58,-49 104,-60 41,-11 85,-6 128,-6 44,0 82,12 127,12 39,0 77,0 116,0 38,0 63,24 103,24 55,0 49,6 49,61 0,32 0,65 0,97 0,31 0,61 0,91 0,11 0,21 0,31 0,16 147,-13 158,-18 39,-20 52,-28 79,-55 21,-21 47,-41 73,-61 25,-19 47,-46 61,-61 29,-29 37,-42 79,-42 41,0 81,0 122,0 4,0 59,-65 67,-73 24,-24 46,-34 67,-55 24,-24 60,-43 85,-61 32,-24 55,-43 91,-61 27,-13 43,-61 67,-85 28,-28 53,-51 85,-67 27,-13 57,-50 92,-67 53,-27 38,-52 61,-97 14,-29 5,-66 18,-92 11,-23 48,-29 67,-48 19,-19 51,-28 73,-49 22,-22 38,-26 61,-49 26,-26 99,-12 133,-12 37,0 73,0 110,0 18,0 54,-34 73,-48 28,-21 61,-40 91,-55 41,-21 62,-26 92,-55 10,-10 38,-27 48,-36"/>
  <path id="path58647" class="fil0 str0" d="M13614 28578c27,-26 -33,73 -24,110 8,32 53,41 79,54 34,17 -16,65 -18,67 -18,18 -34,28 -55,49 -19,19 -13,56 -18,79 -7,28 0,68 0,97 0,38 3,58 -19,80 -25,25 -47,53 -67,73 -25,25 -50,52 -67,85 -16,32 -12,66 -12,103 0,47 37,81 37,128 0,41 -2,82 6,122 6,32 29,59 36,91 10,39 7,86 7,128 0,37 42,67 54,91 9,17 6,73 6,91 0,31 0,61 0,92 0,35 -1,71 7,103 7,29 6,53 6,85 0,46 -21,59 -37,98 -16,41 -46,56 -67,97 -19,38 -48,72 -67,109 -12,25 -44,51 -61,73 -18,24 -12,55 -12,86 0,6 0,12 0,18"/>
  <path id="path58649" class="fil0 str0" d="M11892 28870c0,38 0,120 0,177 0,36 0,73 0,109 0,35 0,69 0,103 0,44 -9,64 -36,92 -19,19 -34,43 -49,73 -16,32 -56,56 -79,79 -15,14 -138,0 -158,0 -62,0 -130,8 -183,-18 -31,-16 -62,19 -73,30 -31,31 -38,30 -85,30 -28,0 -60,36 -79,55 -26,26 -34,62 -43,98 -9,37 0,62 0,97 0,35 18,66 18,103 0,24 -48,19 -73,19 -34,0 -69,0 -103,0 -44,0 -43,23 -67,54 -22,30 -25,60 -49,92 -27,36 -51,69 -85,103 -29,29 -69,50 -97,67 -47,28 -97,42 -146,67 -41,20 -78,47 -110,79 -24,24 -37,62 -55,97 -4,9 -8,17 -12,25 -11,22 -55,52 -67,67 -5,7 -70,-51 -79,-55 -44,-22 -66,-55 -109,-55 -43,0 -86,0 -128,0 -34,0 -37,-17 -67,-24 -36,-9 -84,0 -122,0 -40,0 -59,10 -85,36 -23,23 -40,44 -49,79 -7,31 6,62 6,92 0,33 17,41 -12,79 -19,26 -33,27 -54,48 -19,19 -39,58 -49,79 -23,46 38,87 55,110 17,23 -64,72 -67,73 -26,13 -36,33 -43,61 -7,28 0,68 0,97 0,40 3,78 12,116 12,48 20,73 67,85 32,8 73,10 73,43 0,37 5,61 -18,85 -24,24 -96,18 -128,18 -47,0 -93,0 -140,0 -70,0 -152,-10 -219,6 -37,10 -65,33 -97,49 -33,16 -66,12 -104,12 -38,0 -77,0 -115,0 -41,0 -81,0 -122,0 -27,0 -57,18 -91,18 -44,0 -59,-2 -92,-18 -36,-18 -59,-18 -103,-18 -45,0 -77,12 -122,12 -28,0 -71,6 -97,12 -51,13 -99,34 -140,55 -4,2 -8,0 -12,0 -13,0 -88,85 -103,97 -34,26 -25,62 -25,104 0,4 0,8 0,12"/>
  <path id="path58651" class="fil0 str0" d="M6118 31748c0,53 89,61 121,104 20,26 7,106 0,133 -9,38 -24,36 -24,86 0,42 13,68 43,97 36,36 40,65 91,85 43,17 68,25 116,25 44,0 82,6 127,6 47,0 69,-2 104,24 55,41 73,16 73,85 0,41 -3,85 6,122 7,30 53,71 73,91 34,34 74,43 128,43 58,0 52,9 91,48 33,34 90,25 134,25 49,0 43,27 79,55 20,14 78,42 110,42 40,0 77,18 121,18 40,0 43,18 43,-42 0,-37 0,-73 0,-110 0,-41 11,-43 18,-73 10,-38 43,-42 43,-85 0,-46 14,-78 -13,-122 -21,-36 -38,-51 -48,-91 -7,-27 44,-54 61,-67 34,-25 47,-66 54,-103 8,-37 4,-57 19,-85 17,-35 61,-71 91,-86 30,-15 48,-53 67,-73 8,-7 18,-13 24,-18"/>
  <path id="path58653" class="fil0 str0" d="M7523 32825c4,-3 190,103 207,116 62,46 55,62 55,140 0,58 4,50 49,73 23,11 76,6 103,6 77,0 52,27 67,85 11,46 29,45 55,79 9,13 9,88 12,104 10,51 39,76 85,103 32,19 80,34 116,43 3,0 0,83 0,91 0,29 50,42 73,42 40,0 81,0 121,0 39,0 77,0 116,0 40,0 58,3 85,-24 20,-20 48,-33 79,-49 33,-16 25,-15 25,31 0,44 -15,71 -25,109 -7,31 0,73 0,104 0,42 0,85 0,128 0,30 0,60 0,91 0,40 2,65 37,79 32,13 92,0 128,0 38,0 64,3 91,-24 23,-24 59,-25 85,-19 21,6 45,46 67,67 23,24 39,50 61,79 16,23 49,53 79,67 30,15 69,52 85,67 19,19 36,51 43,79 4,19 49,32 61,43 17,17 18,65 18,91 0,39 -18,50 -18,85 0,16 53,8 60,37 10,40 -17,77 -48,85 -38,10 -31,55 -31,85 0,35 16,64 37,92 27,35 54,44 97,54 34,9 31,21 31,55"/>
  <path id="path58655" class="fil0 str0" d="M9629 35089c15,4 60,91 73,121 9,25 0,71 0,98 0,39 -15,45 -43,73 -19,19 -51,32 -73,55 -21,20 -18,45 -18,79 0,10 0,20 0,30"/>
  <path id="path58657" class="fil0 str0" d="M10194 36361c0,32 30,-60 55,-80 33,-24 67,-41 85,-67 15,-18 31,-55 31,-85 0,-37 4,-65 12,-97 10,-41 24,-70 24,-116 0,-34 0,-69 0,-103 0,-30 -12,-54 -12,-91 0,-40 -40,-75 -49,-110 -7,-31 0,-78 13,-103 19,-40 29,-66 48,-104 22,-44 53,-83 79,-128 19,-30 16,-64 43,-91 26,-26 52,-62 73,-91 18,-24 71,-41 91,-61 20,-19 66,-29 86,-49 29,-29 44,-26 54,-67 7,-27 6,-64 6,-91 0,-30 0,-61 0,-91 0,-18 81,-18 104,-18 44,0 50,-8 73,-31 19,-19 71,-45 97,-61 32,-19 47,-44 61,-73 10,-20 69,-49 79,-55 9,-4 12,-73 18,-85 18,-35 28,-53 67,-73 30,-15 67,-18 92,-24 14,-4 39,-55 42,-67 5,-17 130,-6 146,-6 41,0 53,-12 85,12 26,19 61,43 98,43 34,0 62,-1 85,-13 11,-5 19,-14 24,-18"/>
  <path id="path58659" class="fil0 str0" d="M11874 34273c30,-15 36,-78 36,-127 0,-31 6,-59 6,-92 0,-8 24,-67 31,-85 9,-23 0,-72 0,-97 0,-33 0,-65 0,-98 0,-23 -24,-54 -37,-66 -25,-26 -32,-35 -48,-67 -15,-30 18,-62 24,-73 12,-24 32,-38 49,-55 23,-23 54,-30 73,-49 17,-18 59,-24 85,-24 54,0 68,7 116,30 48,24 48,17 48,73 0,34 63,-16 67,-24 15,-29 32,-30 67,-30 41,0 51,22 79,36 23,11 18,71 18,97 0,34 4,75 19,104 17,35 43,49 67,61 19,9 69,0 91,0 9,0 62,-50 67,-55 17,-18 49,-31 67,-49 19,-19 63,-31 85,-42 29,-15 57,5 85,12 27,7 5,59 24,79 39,38 43,21 43,85 0,40 11,59 30,85 22,29 45,41 74,55 26,13 91,0 121,0 35,0 61,5 91,12 28,7 45,28 80,37 38,9 53,14 85,30 19,10 69,0 91,0 32,0 63,1 91,-6 31,-8 50,-35 86,-42 35,-7 77,16 109,24 34,8 49,7 49,49 0,30 0,60 0,91 0,38 34,70 61,97 26,27 62,23 85,0 10,-10 0,-89 0,-103 0,-36 22,-70 30,-104 2,-6 4,-12 6,-18 10,-28 10,-62 19,-79 12,-25 86,-12 109,-12 16,0 40,58 43,67 10,40 -13,54 24,73 44,22 45,19 73,-19 15,-19 6,-67 6,-91 0,-32 0,-65 0,-97 0,-43 53,-25 122,-25 38,0 93,24 122,31 9,2 33,96 36,109 8,40 9,55 55,55 40,0 56,-16 73,-49 9,-18 75,-47 97,-60 32,-19 55,-42 85,-49 41,-10 73,15 104,30 27,14 49,22 79,37 30,15 50,14 79,0 23,-12 80,-12 103,-12 40,0 84,37 116,61 22,16 48,12 67,12 14,10 40,-92 43,-104 9,-46 18,-58 60,-79 41,-20 75,-46 116,-67 31,-15 78,11 97,31 24,24 35,33 43,67 8,33 26,56 43,79 24,32 35,72 42,109 6,28 0,63 0,92 0,34 6,67 6,103 0,22 3,48 6,61"/>
  <path id="path58661" class="fil0 str0" d="M12081 33452c0,47 -12,-93 -12,-140 0,-36 -16,-67 -31,-97 -12,-25 -29,-46 -42,-80 -13,-31 -19,-38 -19,-79 0,-21 -31,-49 -42,-60 -20,-20 -49,-34 -79,-49 -23,-12 -58,-6 -86,-6 -13,0 -44,-53 -48,-61 -18,-35 -30,-43 -73,-43 -31,0 -61,0 -92,0 -21,0 -38,-28 -54,-36 -27,-14 -36,-25 -73,-25 -32,0 -60,24 -86,37 -29,14 -51,51 -73,73 -26,27 -42,43 -42,0 0,-43 0,-85 0,-128 0,-30 0,-61 0,-91 0,-35 -3,-60 -12,-79 -7,-13 -82,40 -92,42 -31,8 -47,66 -61,13 -6,-27 0,-64 0,-92 0,-35 -20,-59 -30,-79 -17,-34 -43,-49 -61,-73 -18,-23 -48,-45 -79,-61 -27,-13 -53,-12 -91,-12 -28,0 -51,-16 -79,-30 -36,-18 -71,-27 -92,-55 -20,-27 -17,-54 -42,-73 -15,-11 -12,-53 -12,-79 0,-10 0,-20 0,-31"/>
  <path id="path58663" class="fil0 str0" d="M10255 30550c0,-41 76,46 85,85 9,32 0,76 0,109 0,43 27,88 37,128 9,34 10,75 24,103 16,31 15,44 49,61 23,12 12,76 12,98 0,46 10,79 18,121 6,30 0,68 0,98 0,8 0,16 0,24 0,34 35,57 55,67 21,10 13,70 18,91 10,39 -5,61 -30,67 -31,8 -44,56 -49,85 -4,29 0,63 0,92 0,42 2,67 25,97 26,35 91,27 127,36 35,9 86,0 122,0 50,0 -8,47 -18,55 -21,16 -57,19 -79,31 -26,13 -41,46 -61,67 -8,8 -8,12 -12,18"/>
  <path id="path58665" class="fil0 str0" d="M13675 34006c-26,25 -27,-69 -49,-98 -25,-33 -36,-62 -73,-91 -27,-22 -30,-47 -36,-79 -10,-50 -7,-50 -43,-85 -36,-36 -50,-16 -61,-61 -10,-40 -10,-57 -36,-91 -20,-27 -19,-49 -19,-92 0,-42 0,-85 0,-127 0,-33 1,-61 -6,-86 0,-2 31,-53 31,-73 0,-29 30,-46 36,-73 8,-31 -31,-58 -48,-67 -28,-14 -25,-38 -25,-73 0,-38 18,-50 0,-85 -16,-33 -12,-69 -12,-109 0,-42 12,-78 12,-116 0,-26 6,-67 12,-91 7,-27 36,-41 55,-55 24,-18 -16,-80 -24,-91 -14,-19 -22,-44 -37,-73 -13,-27 34,-52 43,-61 9,-9 0,-77 0,-91 0,-32 6,-59 6,-92 0,-30 0,-61 0,-91 0,-43 -12,-75 -12,-116 0,-34 0,-69 0,-103 0,-43 21,-55 30,-91 6,-24 51,-48 61,-67 13,-26 6,-65 12,-92 8,-28 6,-59 6,-91 0,-40 0,-81 0,-122 0,-35 3,-67 -12,-97 -14,-28 -37,-56 -55,-73 -23,-24 -26,-63 -48,-85 -14,-14 -25,-39 -25,-67 0,-31 -30,-74 -30,-116 0,-14 0,-28 0,-42"/>
  <path id="path58667" class="fil0 str0" d="M16790 24386c0,-6 -64,61 -73,73 -24,32 -40,50 -60,91 -15,28 -31,63 -31,97 0,45 -40,39 -61,13 -26,-34 -47,-72 -67,-92 -40,-40 -24,-14 -24,55 0,43 0,85 0,128 0,37 3,67 -12,97 -13,26 -36,54 -61,67 -29,15 -35,42 -61,67 -20,20 -34,46 -49,61 -21,21 15,77 19,85 17,35 36,24 36,67 0,32 -41,51 -55,79 -11,22 -32,35 -42,55 -15,30 -28,58 -49,79 -29,29 -37,86 -55,122 -18,38 -41,71 -60,109 -17,33 -37,41 -37,85 0,36 2,63 -12,92 -10,20 -96,20 -116,24 -4,1 -8,0 -12,0 -35,0 -59,22 -79,43 -31,30 -24,85 -24,127 0,75 48,137 48,213 0,33 0,61 6,86 10,36 -4,75 -18,103 -18,37 -21,60 -30,97 -11,41 19,112 36,146 9,19 12,72 12,92 0,30 14,71 25,91 16,32 24,51 24,91 0,33 1,68 -6,98 -6,24 -40,70 -61,91 -27,27 -33,39 -55,61 -25,25 -31,62 -48,97 -23,45 -18,110 -67,85 -30,-15 -40,-36 -86,-36 -12,0 -24,0 -36,0"/>
  <path id="path58669" class="fil0 str0" d="M15610 27355c-4,0 2,95 6,116 4,17 90,66 103,73 42,20 69,49 92,79 13,18 11,51 18,79 9,34 18,47 18,85 0,30 -20,50 -36,67 -25,25 -37,5 -37,61 0,38 5,61 12,91 10,41 46,54 55,91 9,35 44,73 67,104 31,41 69,54 97,91 28,37 67,12 86,49 9,19 56,44 73,67 26,34 46,70 73,97 22,22 61,40 91,55 29,14 65,4 85,-6 31,-16 28,-37 73,-37 36,0 55,13 55,49 0,42 9,77 18,116 9,33 27,58 37,97 8,33 6,72 6,110 0,34 0,68 0,103 0,36 12,60 12,97 0,31 0,61 0,92 0,44 -70,48 -103,48 -36,0 -67,6 -86,25 -23,23 -18,50 -18,85 0,37 4,65 12,97 9,36 -4,59 -18,73 -15,15 -30,30 -43,43 -23,23 -60,-5 -30,55 18,36 58,60 85,66 20,5 35,60 55,80 26,26 41,77 67,103 22,22 48,77 61,103 15,32 150,57 176,61 47,7 69,-2 104,25 21,15 30,78 42,103 5,9 0,37 0,49 8,16 91,-54 92,-55 34,-35 40,-61 103,-61 54,0 98,3 146,12 44,9 63,19 110,19 32,0 64,0 97,0 31,0 44,-37 67,-49 30,-15 110,-2 140,6 35,9 68,30 109,30 44,0 82,-34 110,-54 44,-34 60,-19 121,18 38,22 74,-9 104,-24 31,-16 18,-43 67,-43 53,0 105,0 158,0 35,0 67,-3 97,12 36,18 76,8 110,24 30,16 73,19 109,19 36,0 56,-25 98,-25 51,0 56,3 91,-24 18,-14 30,-67 49,-85 25,-26 76,-38 109,-55 43,-21 57,-41 92,-67 35,-26 41,-36 91,-36 41,0 72,39 103,54 43,22 37,38 37,86 0,30 0,60 0,91 0,40 -6,53 -18,79 -18,35 -52,13 -25,67 8,15 28,31 37,67 6,25 35,37 42,67 9,34 -9,61 -18,79 -15,29 -35,59 -49,73 -17,18 21,76 25,91 8,35 6,56 18,79 10,19 0,70 0,91 0,11 0,21 0,31 0,26 53,-13 79,-6 38,9 72,15 110,24 41,11 86,8 127,18 58,15 116,13 177,13 51,0 81,-19 116,-37 44,-22 93,-16 133,-36 31,-16 88,-28 122,-37 26,-7 78,-42 103,-55 24,-11 41,-22 73,-30 35,-9 37,-56 37,-85 0,-43 0,-55 -30,-86 -24,-23 -38,-39 -49,-60 -17,-34 -12,-71 -12,-110 0,-30 24,-47 24,-79 0,-31 0,-61 0,-91 0,-32 56,-48 85,-55 39,-10 79,-6 104,-18 28,-14 57,-26 79,-43 28,-21 52,-46 79,-73 38,-38 81,-62 128,-85 40,-20 64,-48 97,-73 45,-34 67,-30 67,-85 0,-39 -13,-56 -24,-80 -14,-27 -32,-43 -55,-67 -24,-24 -34,-52 -55,-73 -18,-18 -30,-40 -36,-67 -7,-27 6,-66 12,-91 6,-25 1,-66 6,-85 10,-40 20,-40 36,-73 11,-22 38,-42 55,-55 25,-19 37,-26 37,-67 0,-35 -7,-50 -19,-73 -14,-28 -30,-14 -30,-61 0,-12 0,-24 0,-36 0,-43 -37,-98 -37,-152 0,-39 25,-55 25,-98 0,-34 -48,-72 -73,-85 -30,-14 -53,-51 -67,-79 -22,-43 -20,-74 -49,-103 -17,-17 -30,-58 -30,-85 0,-32 -1,-63 -6,-86 -6,-22 -59,-19 -79,-24 -27,-7 -49,-17 -80,-24 -29,-8 -60,-17 -91,-25 -37,-9 -49,-12 -73,-24 -30,-15 11,-59 18,-67 23,-22 50,-31 73,-55 27,-26 38,-40 19,-79 -16,-32 -42,-60 -55,-85 -9,-18 49,-61 61,-73 29,-29 36,-36 36,-79 0,-31 0,-61 0,-91 0,-27 -29,-60 -48,-80 -26,-25 4,-78 18,-97 21,-28 13,-44 49,-79 21,-21 57,-33 79,-55 21,-22 30,-32 30,-67 0,-24 6,-53 6,-85 0,-31 -30,-41 -36,-67 -4,-16 -38,-44 -49,-55 -21,-20 -33,-41 -43,-60 -8,-17 -12,-29 -12,-49"/>
  <path id="path58671" class="fil0 str0" d="M20228 24891c-6,-12 49,36 92,79 18,18 -15,83 -19,97 -8,31 -45,66 -61,98 -16,33 -32,68 -54,91 -28,27 -44,12 -73,61 -24,39 -43,112 -43,158 0,32 0,65 0,97 0,48 17,76 37,116 18,37 92,30 127,30 36,0 61,0 85,12 27,14 50,44 61,67 13,26 47,65 67,86 15,14 25,55 37,79 12,25 6,63 6,91 0,36 -22,58 -43,79 -28,28 -49,49 -85,67 -30,15 -53,28 -73,49 -28,28 25,76 43,85 29,14 61,35 79,48 36,28 44,17 55,61 6,26 35,68 48,86 11,14 0,77 0,97 0,30 0,61 0,91 0,31 0,61 0,91"/>
  <path id="path58673" class="fil0 str0" d="M20417 30537c0,29 48,36 61,61 11,23 6,64 6,91 0,15 -44,53 -49,73 -9,36 7,76 18,98 13,25 62,43 86,48 28,8 5,60 18,86 17,34 -17,53 -31,67 -24,24 -18,57 -18,91 0,26 52,26 73,36 31,16 37,19 37,61 0,47 -5,51 -31,85 -12,17 -53,56 -73,61 -8,2 -55,68 -67,79 -20,20 2,63 6,79 5,18 44,51 61,74 17,22 60,42 85,54 36,18 68,33 98,55 29,22 50,62 73,85 16,17 30,60 36,85 7,26 49,49 61,73 15,29 28,51 37,86 6,26 0,63 0,91 0,30 0,61 0,91 0,35 -16,53 -43,79 -31,31 -66,64 -103,73 -20,5 -47,40 -67,55 -27,20 -45,27 -61,43 -19,19 -18,32 -18,73 0,39 5,59 24,85 15,20 52,12 79,12 40,0 51,10 85,18 10,3 15,20 19,25"/>
  <path id="path58675" class="fil0 str0" d="M20776 32697c44,11 -12,79 -37,86 -30,7 -34,20 -48,48 -13,26 -6,63 -6,92 0,21 73,12 91,12 36,0 65,2 85,12 11,5 18,67 18,85 0,39 0,77 0,116 0,32 1,68 6,91 5,19 61,35 73,61 17,32 31,35 31,85 0,30 0,61 0,91 0,45 18,76 49,92 21,10 78,0 103,0 35,0 61,3 79,12 23,11 -22,83 -24,85 -19,25 -28,33 -18,73 12,49 61,55 103,55 35,0 72,-2 103,6 20,5 25,67 25,85 0,38 17,62 24,91 7,28 10,68 24,98 14,26 11,63 25,91 10,20 6,57 6,85 0,30 -1,64 -6,85 -8,30 -34,47 -49,67 -30,41 32,49 55,49 38,0 77,0 115,0 36,0 41,16 61,36 7,7 8,13 12,19"/>
  <path id="path58677" class="fil0 str0" d="M15805 33750c4,5 36,-103 42,-128 11,-41 33,-82 49,-121 24,-61 -6,-97 -6,-152 0,-48 7,-79 18,-122 9,-37 6,-77 6,-116 0,-44 0,-89 0,-134 0,-46 0,-93 0,-140 0,-40 0,-81 0,-121 0,-37 0,-73 0,-110 0,-10 0,-20 0,-30 0,-32 6,-69 6,-104 0,-34 59,-64 79,-79 27,-19 67,-42 92,-54 12,-7 15,-90 18,-104 9,-34 -18,-67 30,-67 36,0 63,6 98,6 41,0 49,-9 79,-24 21,-10 56,-57 67,-67 24,-24 46,-38 67,-49 26,-13 107,59 121,73 16,16 59,5 80,25 27,27 15,30 66,30 34,0 69,6 104,6 49,0 62,-19 97,-55 26,-26 48,-73 55,-103 9,-35 0,-86 -12,-116 -13,-31 -26,-50 -43,-85 -19,-37 -2,-86 6,-121 10,-39 43,-49 43,-98 0,-22 -57,-83 -67,-97 -15,-19 -25,-71 -30,-91 -8,-30 -24,-54 -37,-79 -17,-35 -38,-65 -55,-98 -14,-28 -6,-68 -12,-97 -7,-34 -27,-55 -42,-85 -17,-33 -31,-30 -31,-73"/>
  <path id="path58679" class="fil0 str0" d="M16918 30184c-15,-29 -43,53 -73,67 -28,15 -36,24 -61,49 -21,21 14,78 25,91 21,29 27,43 36,79 7,27 0,64 0,92 0,45 -10,62 -24,91 -14,28 -12,52 -12,85 0,37 -26,64 -43,98 -22,44 -26,50 -55,79 -20,20 -30,45 -30,73"/>
  <path id="path58681" class="fil0 str0" d="M20934 32119c-32,32 89,25 134,25 43,0 52,4 61,-31 6,-26 60,1 79,-18 22,-22 48,-30 67,-55 13,-18 36,-72 36,-97 0,-41 7,-46 37,-61 34,-17 57,-42 97,-42 35,0 63,6 98,6 20,0 47,-24 73,-37 30,-15 60,-42 85,-55 31,-16 66,-42 85,-61 15,-15 29,-52 49,-66 35,-27 86,64 97,79 10,13 0,73 0,91 0,35 96,24 128,24 36,0 73,0 109,0 37,0 98,33 104,55 11,45 31,36 73,61 23,14 27,-59 30,-73 8,-31 12,-80 12,-110 0,-41 11,-65 31,-85 22,-22 24,-42 49,-55 26,-13 91,0 121,0 38,0 80,13 122,13 51,0 101,0 152,0 25,0 7,-62 31,-67 25,-7 56,-13 91,-13 10,0 63,76 67,80 13,13 67,6 91,6 24,0 41,-43 67,-49 39,-10 93,0 134,0 34,0 69,0 103,0 38,0 25,-40 25,-73 0,-41 10,-47 36,-73 29,-29 36,-61 67,-91 23,-24 36,-73 55,-98 21,-28 55,-49 79,-73 27,-27 47,-35 73,-61 30,-30 65,-47 97,-79 25,-24 33,-74 55,-103 20,-27 43,-46 43,-85 0,-31 0,-61 0,-92 0,-22 -31,-36 -43,-48 -24,-24 -13,-54 12,-73 36,-27 31,-22 43,-67 7,-29 17,-62 24,-92 8,-33 16,-65 24,-97 9,-36 13,-69 13,-109 0,-33 0,-65 0,-98 0,-44 0,-89 0,-134 0,-31 -1,-63 6,-91 10,-43 20,-48 54,-73 23,-17 73,-27 104,-43 20,-10 58,-25 79,-30 28,-7 38,-24 79,-24 37,0 43,-13 61,-31 19,-19 74,0 97,0"/>
  <path id="path58683" class="fil0 str0" d="M19060 35904c8,-8 108,-7 140,-30 31,-24 59,-39 91,-55 7,-4 0,-90 0,-104 0,-39 54,-51 85,-66 13,-7 6,-72 6,-92 0,-49 -5,-67 43,-79 33,-8 91,29 122,37 49,12 62,-9 85,36 11,23 38,55 61,61 43,11 81,20 121,37 30,12 73,4 104,12 6,1 48,33 67,42 24,12 68,7 97,7 29,0 57,-40 73,-55 22,-23 40,-17 79,-25 35,-7 71,-2 92,19 24,25 50,52 85,61 40,10 98,0 140,0 50,0 101,0 152,0 42,0 57,9 67,-31 8,-32 10,-66 18,-97 7,-29 12,-62 12,-92 0,-30 0,-60 0,-91 0,-20 77,-45 91,-49 39,-9 81,-6 122,-6 41,0 58,-7 91,-24 37,-18 43,24 55,49 11,21 67,24 91,24 40,0 59,-16 80,-36 26,-27 -5,-49 48,-49 43,0 85,0 128,0 33,0 2,-68 -12,-97 -13,-26 -53,-35 -79,-61 -23,-23 -46,-50 -61,-79 -18,-37 -44,-37 -79,-55 -26,-13 -58,-37 -73,-49 -23,-17 -44,-25 -67,-43 -25,-18 -43,-24 -61,-42 -18,-18 -32,-33 -43,-55 -16,-33 21,-60 31,-73 20,-26 40,-39 61,-67 26,-34 3,-50 36,-67 19,-9 69,0 91,0 39,0 61,29 73,55 14,28 47,18 80,18 36,0 63,4 85,-18 21,-21 39,-33 55,-49 24,-24 57,-45 85,-73 26,-26 71,-47 97,-67 31,-23 64,-45 85,-66 21,-22 39,-28 67,-49 24,-18 37,-21 73,-12 16,4 39,47 43,54 7,16 79,2 85,0 17,-4 43,-73 55,-85 28,-29 74,-55 109,-73 36,-18 79,-13 116,-6 20,4 12,-61 12,-79 0,-14 44,-40 61,-49 29,-14 52,-30 91,-30 45,0 55,36 73,55 28,27 52,24 91,24 30,0 25,-45 25,-73 0,-36 4,-60 12,-91 8,-32 34,-68 49,-98 15,-31 23,-61 30,-91 9,-34 44,-56 67,-73 22,-17 37,-44 49,-55"/>
  <path id="path58685" class="fil0 str0" d="M22869 33738c21,-16 70,-103 79,-146 9,-42 41,-54 73,-73 39,-23 68,-37 104,-55 21,-11 79,37 91,49 22,22 69,18 103,18 61,0 122,0 183,0 55,0 120,-7 170,6 35,9 58,22 92,30 33,9 68,7 103,7 23,0 60,6 91,6 51,0 103,5 146,-12 31,-13 60,-29 92,-37 40,-10 90,5 127,12 30,6 58,18 86,24 40,11 62,6 97,-12 41,-20 69,-29 103,-54 20,-15 42,-81 55,-104 18,-29 57,-40 85,-55 36,-18 62,-43 92,-73 18,-18 5,-83 0,-103 -10,-39 -24,-51 -13,-97 10,-40 -3,-69 37,-79 35,-9 72,-7 109,-7 36,0 67,-2 92,-12 23,-9 39,-45 54,-61 21,-20 69,-41 98,-48 38,-10 70,0 85,30 8,16 80,6 97,6 41,0 58,-8 67,31 9,35 26,75 49,97 18,18 41,22 61,49 21,28 40,24 79,24 42,0 61,-5 85,-36 25,-34 -20,-51 24,-74 34,-16 76,-45 104,-66 32,-26 49,-6 67,18 24,33 7,55 61,55 30,0 60,0 91,0 37,0 24,-34 24,-67 0,-36 15,-73 31,-104 11,-22 13,-66 18,-85 11,-43 58,-73 85,-110 19,-24 73,-42 97,-54 31,-15 64,-39 86,-55 20,-15 72,-6 97,-6 30,0 61,0 91,0 39,0 77,0 116,0 48,0 56,10 67,55 9,37 33,78 48,109 15,30 40,54 49,91 11,45 3,50 49,61 25,7 59,6 85,12 39,10 74,23 116,13 36,-9 66,-30 91,-43 31,-15 59,-36 85,-49 24,-12 88,0 116,0 19,0 65,-47 79,-61 17,-17 43,-30 67,-42 2,-1 4,-4 6,-6 38,-19 30,-76 30,-110 0,-46 -6,-50 -36,-73 -28,-21 -30,-32 -19,-55"/>
  <path id="path58687" class="fil0 str0" d="M28595 32411c-26,-19 2,69 -12,98 -19,37 0,67 24,91 29,29 73,34 110,49 34,13 56,-1 66,42 8,32 75,43 98,49 57,14 123,6 182,6 44,0 65,16 86,37 12,12 78,12 97,12 30,0 61,18 97,18 28,0 57,18 92,18 13,0 20,-5 24,-6"/>
  <path id="path58689" class="fil0 str0" d="M29933 33099c6,0 -36,58 -79,116 -14,19 -45,30 -73,30 -46,0 -88,6 -134,6 -41,0 -89,2 -121,-6 -31,-8 -44,-18 -85,-18 -48,0 -72,11 -110,30 -31,16 -67,19 -91,31 -7,3 0,94 0,103 0,38 24,61 42,85 36,48 62,51 110,79 38,23 126,32 170,43 48,12 86,24 134,24 46,0 43,4 43,49 0,44 1,59 -31,91 -33,33 -79,44 -121,61 -42,17 -81,40 -122,61 -54,27 -90,66 -140,91 -51,26 -95,60 -146,85 -36,18 -70,29 -110,37 -28,6 -36,54 -48,79 -11,21 1,73 6,91 9,37 12,64 12,104 0,36 4,60 12,91"/>
  <path id="path58691" class="fil0 str0" d="M29051 34377c0,33 -4,90 18,146 11,26 7,67 7,97 0,32 23,64 30,98 1,4 0,8 0,12 0,21 26,75 36,97 15,29 35,63 43,97 7,27 0,64 0,92 0,34 -25,55 -49,79 -22,22 -66,36 -91,48 -28,14 -65,65 -85,92 -50,66 -149,116 -219,158 -32,19 -87,10 -122,24 -42,17 -63,21 -97,55 -24,24 -31,47 -31,85 0,21 -44,57 -54,67 -26,26 -39,57 -67,85 -31,31 -44,50 -73,79 -9,10 -25,7 -37,7"/>
  <path id="path58693" class="fil0 str0" d="M28211 35807c-20,20 -68,-16 -85,-25 -34,-17 -51,-20 -91,-12 -43,9 -57,-7 -79,37 -22,43 -50,78 -67,121 -12,30 -51,37 -79,43 -20,4 -48,12 -79,12 -31,0 -61,0 -92,0 -12,0 -53,-12 -79,-12 -28,0 -63,10 -79,18 -27,14 -48,48 -61,73 -15,32 -42,53 -42,92 0,8 15,60 18,73 9,37 -13,51 -24,73 -19,37 -34,37 -12,91 15,40 35,40 24,85 -6,22 -70,56 -85,67 -27,20 -43,43 -67,55 -37,18 -36,48 -85,48 -34,0 -78,13 -116,13 -53,0 -105,0 -158,0 -32,0 -77,-28 -92,-43 -19,-19 -53,-23 -79,-37 -20,-9 -74,0 -97,0 -37,0 -73,0 -110,0 -40,0 -75,-1 -103,13 -20,10 -37,75 -49,91 -15,21 -31,32 -48,49 -18,18 -68,18 -92,24 -32,8 -31,29 -61,0 -25,-26 -44,-32 -66,-55 -19,-19 -40,-40 -55,-54 -18,-18 -50,-13 -79,-13 -41,0 -81,0 -122,0 -37,0 -73,0 -110,0 -17,0 -68,-12 -91,-18 -36,-9 -36,-24 -61,-49 -15,-14 -18,-60 -24,-85 -9,-37 4,-59 24,-79 12,-12 32,-46 43,-61 23,-30 -18,-60 -24,-67 -20,-20 -36,-35 -55,-54 -23,-23 -52,-34 -73,-55 -25,-25 -39,-38 -61,-67 -20,-27 -31,-38 -43,-61 -16,-33 -39,-43 -54,-73 -13,-25 -24,-40 -31,-67 -7,-27 53,-22 73,-42 21,-22 25,-38 25,-73 0,-31 0,-61 0,-92 0,-21 -60,-24 -80,-24 -35,0 -60,0 -85,-12 -22,-11 -53,-35 -67,-49 -7,-8 -66,0 -79,0"/>
  <path id="path58695" class="fil0 str0" d="M25066 35612c-2,-2 -68,56 -86,73 -29,30 -39,39 -66,67 -31,30 -61,36 -92,67 -31,31 -36,-48 -36,-67 0,-41 -6,-61 30,-79 37,-19 21,-37 19,-49 -6,-23 -61,-43 -74,-55 -15,-15 -70,29 -73,31 -22,22 -38,26 -54,42 -22,22 -73,-25 -79,-30 -23,-17 -37,-24 -73,-24 -39,0 -69,3 -104,12 -28,7 -59,6 -91,6 -50,0 -53,-18 -85,-43 -26,-19 -55,-73 -67,-97 -18,-35 -40,-57 -49,-91 -7,-30 -26,-44 -43,-61 -15,-16 -52,-17 -79,-30 -19,-10 -69,0 -91,0 -30,0 -61,0 -91,0 -25,0 -65,40 -79,54 -24,24 -33,45 -49,61 -15,15 -54,21 -67,31 -25,18 -53,28 -85,36 -37,9 -35,-2 -49,-30 -19,-40 -45,-20 -73,-6 -22,11 -54,40 -73,54 -28,21 -70,-55 -79,-73 -11,-22 -45,-24 -73,-24 -30,0 -61,0 -91,0 -42,0 -50,7 -73,30 -24,24 -31,46 -67,55 -24,6 -43,29 -73,37 -27,6 -58,5 -79,0 -27,-7 -15,-37 -55,-37 -61,0 -122,0 -183,0 -46,0 -93,0 -140,0 -42,0 -68,4 -91,-18 -21,-21 -29,-25 -67,-25 -27,0 -61,37 -85,49 -23,12 -31,51 -43,73 -15,31 -30,37 -66,37 -37,0 -53,-23 -80,-43 -27,-20 -52,-24 -91,-24 -34,0 -69,0 -103,0 -33,0 -65,0 -98,0 -40,0 -59,-15 -73,-43 -14,-28 -21,-61 -30,-79 -16,-31 -38,-44 -55,-61 -9,-9 -12,-12 -18,-18"/>
  <path id="path58697" class="fil0 str0" d="M22066 35588c-26,-26 51,53 67,85 19,39 -18,61 -43,73 -23,11 -63,6 -91,6 -18,0 -24,66 -24,85 0,27 6,61 6,91 0,37 4,65 12,98 10,40 14,61 55,61 51,0 52,0 73,42 13,27 6,68 6,98 0,50 3,91 24,133 18,36 3,97 12,134 7,27 0,64 0,92 0,4 75,9 85,12 29,7 56,22 86,36 31,16 30,36 30,73 0,36 -2,72 6,104 6,24 11,62 18,91 9,34 19,68 19,103 0,33 0,65 0,98 0,35 -3,62 12,91 11,23 40,35 67,49 23,12 59,6 85,12 36,9 73,21 109,30 28,7 66,-32 86,-42 37,-19 64,-4 103,6 38,10 62,18 103,18 30,0 66,6 98,6 46,0 47,-17 73,-36 33,-25 45,18 55,36 15,32 30,45 60,67 25,19 61,36 61,67 0,10 18,30 19,31 0,51 52,86 73,127 17,36 31,34 12,73 -13,25 -23,47 -31,79 -7,29 0,69 0,98 0,5 -57,61 -67,73 -10,13 0,79 0,97 0,41 5,79 13,116 9,45 33,90 42,128 1,3 0,8 0,12 0,28 42,68 49,97 10,42 21,49 61,79 36,27 114,25 158,25 32,0 44,-19 85,-19 40,0 26,37 73,37 42,0 73,-15 110,-25 31,-8 53,-12 85,-12 42,0 59,2 91,19 11,5 -5,83 -6,85 -9,35 -59,57 -85,73 -28,16 -37,23 -37,61 0,36 19,67 37,91 15,20 90,25 115,30 46,9 81,14 122,31 51,20 58,19 79,61 17,34 23,73 31,109 5,28 0,63 0,91 0,34 1,68 -6,98 -7,26 -37,60 -49,85 -12,24 -16,57 -24,73 -5,10 -8,20 -13,30 -8,21 -49,47 -66,55 -40,20 -89,12 -134,12 -32,0 -64,-1 -92,6 -37,10 -43,25 -85,25 -51,0 -54,41 -73,79 -22,44 -3,87 25,115 29,30 87,42 121,55 42,17 56,52 67,98 9,36 24,70 24,109 0,25 40,47 55,67 17,22 12,64 18,91 8,32 13,58 13,92 0,32 0,65 0,97 0,30 0,61 0,91 0,31 0,61 0,92 0,30 0,60 0,91"/>
  <path id="path58699" class="fil0 str0" d="M22835 26159c0,33 59,35 79,62 14,18 0,93 0,119 0,29 0,57 0,85 0,46 13,72 34,108 14,24 68,34 97,34 34,0 58,13 79,34 17,17 29,40 40,63 10,19 6,57 6,85 0,38 -9,58 -17,91 -3,13 -37,50 -46,62 -17,24 2,63 23,63 27,0 65,5 91,11 37,9 69,11 108,11 28,0 57,0 85,0 30,0 63,6 97,6 39,0 49,-15 79,-23 28,-6 54,-15 79,-28 20,-10 69,0 91,0 38,0 72,-4 102,11 26,13 35,54 35,80 0,36 42,56 73,68 21,8 23,58 23,80 0,28 45,50 68,62 31,15 29,19 29,62 0,29 0,57 0,86 0,21 -42,13 -57,28 -16,16 10,76 11,79 16,32 35,36 51,69 15,29 26,42 51,68 20,19 67,38 91,51 33,16 37,30 57,51 14,14 80,-41 85,-46 24,-24 44,37 46,40 15,30 54,23 85,23 34,0 61,-2 79,-12 34,-17 42,-28 91,-28 35,0 51,10 79,17 32,8 40,16 69,23 26,6 63,0 90,0 47,0 73,3 108,-23 28,-21 54,-42 74,-62 18,-19 34,-51 46,-74 20,-41 63,-60 102,-80 31,-15 47,-30 62,-45 24,-24 57,-31 85,-45 4,-2 18,0 23,0 47,-24 51,-10 51,34 0,9 52,58 57,68 13,26 9,48 28,73 16,22 37,23 68,23 34,0 69,0 103,0 36,0 55,9 68,34 10,21 -27,50 -40,68 -22,29 -34,46 -51,63 -22,21 -30,35 -46,51 -17,18 46,48 57,57 24,17 40,55 40,85 0,32 26,71 45,91 21,21 47,28 74,34 35,7 54,21 80,34 23,11 44,65 51,79 15,32 77,17 113,17 29,0 63,-28 85,-51 15,-14 76,-6 97,-6 32,0 65,-26 91,-39 34,-17 45,-52 45,-85 0,-23 79,-29 97,-29 32,0 51,9 51,46 0,29 68,17 91,17 45,0 8,-54 62,-40 13,3 48,63 63,74 26,20 77,7 107,22 27,14 67,21 97,29 28,7 68,0 97,0 32,0 64,0 96,0 34,0 71,2 102,-6 24,-6 58,-66 85,-79 35,-18 71,-34 103,-57 29,-22 56,-41 85,-63 24,-18 63,-38 90,-45 22,-5 79,-45 91,-57 27,-27 51,-31 74,-62 21,-28 31,-67 46,-97 19,-38 36,-59 73,-74 9,-3 30,-37 40,-45"/>
  <path id="path58701" class="fil0 str0" d="M24958 29883c22,-9 86,14 125,-6 36,-18 61,-24 74,-51 19,-38 29,-66 40,-108 8,-32 20,-68 34,-96 11,-23 78,-39 96,-57 31,-31 44,-30 63,-68 11,-23 5,-64 5,-91 0,-35 17,-67 29,-91 7,-14 57,-28 68,-34 5,-3 0,-76 0,-85 0,-25 -20,-47 -40,-57 -24,-12 5,-71 6,-74 15,-29 44,-43 62,-62 19,-19 27,-38 57,-45 15,-4 53,-53 57,-57 22,-22 40,-37 40,-68 0,-29 0,-57 0,-86 0,-31 12,-64 22,-85 12,-22 42,-37 57,-45 19,-9 45,-34 62,-51 24,-24 51,-39 74,-63 30,-29 55,-46 74,-85 12,-23 6,-59 6,-85 0,-29 6,-54 6,-85 0,-15 0,-30 0,-46"/>
  <path id="path58703" class="fil0 str0" d="M27405 30786c0,-22 0,-80 0,-120 0,-11 -57,-36 -62,-39 -22,-17 -32,-37 -51,-63 -14,-19 -41,-41 -57,-57 -16,-16 -31,-36 -51,-51 -20,-15 -35,-23 -57,-34 -27,-13 -28,-25 -62,-34 -15,-3 -44,-32 -51,-40 -16,-15 -12,-43 -12,-73 0,-31 0,-61 0,-91 0,-26 -25,-42 -45,-57 -22,-16 -23,-33 -51,-40 -28,-7 -36,-28 -74,-28 -29,0 -52,-12 -74,-23 -19,-9 -42,-48 -57,-62 -24,-24 -66,-37 -85,-51 -27,-21 -41,-47 -57,-69 -13,-17 -5,-62 -5,-85 0,-26 26,-32 45,-51 24,-24 31,-32 40,-68 7,-29 17,-46 17,-79 0,-29 0,-57 0,-85 0,-27 -44,-44 -57,-57 -18,-19 -22,-40 -40,-57 -26,-26 -38,-42 -68,-57 -15,-7 -41,-35 -51,-45 -17,-17 -36,-28 -51,-40 -24,-18 -42,-30 -57,-45 -17,-18 -36,-20 -51,-34 -13,-14 -17,-61 -17,-80 0,-27 -1,-61 -6,-79 -7,-29 -37,-49 -51,-63 -17,-17 -19,-36 -34,-51 -19,-19 -29,-35 -45,-51 -21,-20 -27,-33 -46,-51 -20,-21 -36,-37 -51,-51 -22,-22 -38,-28 -56,-46 -21,-20 -43,-32 -57,-51 -14,-18 -36,-34 -51,-45 -13,-10 -15,-15 -23,-23"/>
  <path id="path58705" class="fil0 str0" d="M27973 27595c-12,-9 92,6 176,6 39,0 42,9 62,-12 27,-26 58,-19 74,-51 16,-31 64,1 85,23 28,27 49,28 85,28 42,0 51,-10 97,17 19,12 42,25 57,40 15,16 57,11 85,11 31,0 63,2 91,-5 33,-9 79,0 113,0 35,0 62,5 97,5 30,0 51,14 68,23 26,13 67,6 96,6 32,0 57,17 63,39 4,16 55,23 74,23 38,0 58,13 91,-11 33,-26 36,-46 90,-57 8,-2 16,-4 23,-6 20,-5 44,-11 74,-11 11,0 6,-90 6,-102 0,-33 32,-23 62,-23 16,0 58,-11 85,-11 47,0 76,38 114,56 17,9 37,61 51,74 6,6 74,5 79,6 25,6 60,0 85,0 27,0 29,-41 29,-68 0,-25 54,-38 68,-46 23,-11 37,-36 51,-51 33,-32 55,-52 97,-62 27,-7 55,-6 85,-6 28,0 34,52 34,80 0,32 -2,58 11,85 13,25 23,53 23,85 0,30 0,60 0,91 0,39 16,62 45,91 21,20 23,18 46,22"/>
  <path id="path58707" class="fil0 str0" d="M27939 27584c23,23 -17,-64 -17,-97 0,-22 43,-47 57,-57 16,-12 11,-54 11,-79 0,-27 -30,-60 -40,-80 -14,-28 -32,-51 -45,-68 -13,-17 -12,-52 -12,-79 0,-29 0,-57 0,-85 0,-21 61,-51 74,-57 23,-11 53,-17 80,-17 9,0 39,-68 45,-80 14,-28 20,-29 6,-56 -13,-26 -33,-46 -46,-63 -17,-23 -26,-32 -45,-51 -26,-26 -2,-44 17,-62 15,-15 6,-66 6,-86 0,-33 4,-57 11,-85 4,-15 47,-49 57,-62 20,-27 28,-32 28,-74 0,-33 4,-50 12,-79 6,-27 0,-64 0,-91 0,-19 -23,-57 -29,-80 -6,-26 0,-63 0,-91 0,-25 -37,-38 -51,-45 -23,-12 -59,-6 -85,-6 -19,0 -56,-33 -68,-45 -22,-22 -44,-27 -63,-46 -23,-23 -46,-34 -62,-51 -16,-15 -50,-33 -74,-45 -25,-12 -42,-37 -57,-51 -16,-17 -11,-46 -11,-74 0,-39 -3,-59 -23,-91 -10,-18 0,-74 0,-96 0,-35 14,-47 46,-63 32,-16 33,-35 39,-62 3,-11 55,-37 63,-46 15,-15 16,-39 34,-56 26,-26 34,-28 34,-69 0,-28 0,-56 0,-85 0,-37 -4,-49 -23,-68 -16,-16 -30,-33 -39,-51 -11,-21 -6,-54 -6,-79 0,-17 0,-34 0,-51 0,-32 -6,-65 -6,-97 0,-16 62,-40 80,-40 36,0 55,-27 79,-39 29,-15 29,-43 29,-74 0,-33 -2,-59 11,-85 17,-35 46,-64 62,-80 13,-12 6,-90 6,-108 0,-32 0,-64 0,-96 0,-29 0,-57 0,-85 0,-31 0,-61 0,-91 0,-41 -8,-56 -23,-85 -12,-25 -35,-41 -51,-57 -11,-12 6,-65 6,-80 0,-36 -19,-41 -46,-68 -27,-27 -47,-38 -62,-68 -16,-32 -28,-56 -28,-96 0,-30 -1,-59 5,-86 9,-35 20,-65 29,-102 9,-37 22,-69 22,-108 0,-27 1,-59 6,-79 5,-18 48,-43 57,-51 20,-21 48,-32 74,-51 20,-16 42,-32 68,-51 28,-21 48,-28 79,-52 20,-15 71,-33 97,-39 37,-9 59,-1 79,-29 17,-21 27,-38 51,-62 15,-15 6,-66 6,-85 0,-29 0,-57 0,-85 0,-46 13,-42 40,-68 23,-24 32,-37 45,-63 11,-21 39,-28 57,-45 7,-7 13,-14 17,-17 34,-35 -1,-69 -23,-85 -30,-23 -37,-20 -62,-46 -21,-20 -51,-34 -74,-57 -17,-16 -56,-30 -74,-39 -20,-10 -33,-37 -40,-51 -8,-18 -33,-29 -45,-40 -16,-17 -11,-47 -11,-74 0,-37 16,-41 22,-68 4,-15 47,-47 57,-57 13,-13 11,-60 11,-79 0,-29 0,-57 0,-85 0,-9 48,-44 52,-52 15,-30 39,-37 39,-73 0,-51 4,7 -5,-12"/>
  <path id="path58709" class="fil0 str0" d="M33315 27981c0,-4 -113,23 -136,28 -33,8 -61,0 -91,12 -8,3 -40,52 -45,56 -27,27 -48,-21 -57,-39 -13,-27 -28,-29 -63,-29 -38,0 -38,-52 -79,-11 -22,22 -31,70 -51,97 -23,30 -39,30 -68,22 -29,-7 -35,9 -57,63 -5,13 -60,20 -74,34 -25,25 -41,32 -68,68 -22,29 -24,64 -45,85 -24,24 -51,35 -68,0 -5,-10 -72,-23 -86,-23 -39,0 -53,24 -85,40 -19,9 -33,34 -51,51 -19,19 -46,35 -68,51 -20,15 -59,24 -79,34 -24,12 -42,42 -57,57 -22,22 -39,51 -63,68 -25,19 -43,17 -79,17 -28,0 -57,0 -85,0 -17,0 -50,-39 -57,-45 -20,-20 -33,-17 -68,-17 -56,0 -129,62 -182,85 -39,17 -59,25 -85,51 -14,14 -13,52 -17,68 -3,12 -68,6 -79,6 -30,0 -45,-15 -63,-28 -14,-12 -55,-6 -79,-6 -38,0 -74,17 -114,17 -34,0 -68,0 -102,0 -26,0 -47,-21 -57,-40 -19,-39 36,-54 68,-62 35,-9 49,-39 74,-52 21,-10 12,-59 12,-79 0,-31 -19,-37 -29,-57 -14,-28 -42,-50 -57,-79 -11,-23 -49,-50 -73,-63 -26,-13 -39,-33 -63,-51 -22,-16 -43,-50 -57,-68 -16,-22 -39,-46 -51,-62 -21,-29 -22,-44 -22,-80 0,-30 28,-41 28,-79 0,-38 -40,-57 -68,-74 -28,-17 -61,-27 -80,-46"/>
  <path id="path58711" class="fil0 str0" d="M31856 28662c-1,0 23,53 23,119 0,33 0,65 0,97 0,29 1,59 -6,85 -10,40 13,47 -28,57 -34,8 -49,5 -74,17 -25,13 -41,48 -51,68 -14,28 -12,53 -12,85 0,45 16,53 35,91 19,39 45,41 45,80 0,27 11,50 23,62 11,11 64,6 85,6 30,0 58,23 79,34 30,14 70,17 102,17 33,0 59,5 91,5 20,0 29,66 40,80 24,31 6,40 57,40 33,0 56,17 91,17 28,0 56,0 85,0 40,0 52,-3 68,28 9,18 0,65 0,85 0,29 0,57 0,85 0,36 -1,72 11,97 15,30 18,41 57,51 45,11 64,23 74,62 8,32 5,61 17,86 15,29 32,42 51,56 17,13 62,6 85,6 40,0 72,-11 114,-11 39,0 60,-22 68,-51 6,-27 53,-4 62,5 14,14 6,60 6,80 0,23 -35,47 -46,74 -2,7 -3,15 -5,22 -12,46 30,25 68,34 4,1 16,72 17,74 11,23 51,40 62,51 23,23 16,56 -11,63 -26,6 -59,17 -79,22 -35,9 47,77 51,80 28,21 54,24 74,51 25,34 32,46 -12,57 -34,8 -74,3 -108,11 -32,8 -66,4 -96,11 -34,9 -45,17 -80,17 -11,3 -5,101 -5,114 0,32 5,61 5,91 0,33 12,66 12,102 0,30 0,61 0,91 0,37 -5,50 -17,74 -14,27 -37,46 -51,73 -17,34 -52,64 -74,86 -21,20 -38,28 -74,28 -30,0 -61,0 -91,0 -52,0 -84,-8 -130,-17 -47,-9 -70,-14 -97,-34 -16,-12 -42,-24 -62,-34 -23,-11 -51,32 -69,45 -21,16 -29,41 -51,63 -28,28 18,51 29,62 28,28 49,9 28,51 -9,19 -47,23 -74,23 -26,0 -34,27 -34,57 0,38 39,43 68,51 37,9 46,14 46,51 0,30 0,60 0,91 0,15 0,30 0,45"/>
  <path id="path58715" class="fil0 str0" d="M32668 35305c-57,57 -66,-67 -108,17 -15,31 -56,61 -74,79 -18,19 -60,12 -85,12 -14,0 -49,22 -74,28 -43,11 -75,13 -102,-23 -24,-32 -26,-48 -45,-68 -26,-26 -39,10 -51,34 -18,35 -23,50 -23,91 0,32 16,48 23,74 8,32 22,45 22,85 0,29 -45,49 -45,85 0,9 90,51 102,57 32,16 49,45 85,45 19,0 12,85 12,97 0,44 -27,54 -63,68 -34,14 -74,18 -96,40 -23,23 -17,58 -17,91 0,29 20,54 39,73 34,34 104,38 131,52 14,6 11,59 11,79 31,15 -11,68 -11,102 0,39 -1,54 28,68 24,12 23,69 23,91 0,36 0,72 0,108 0,38 0,76 0,114 0,26 6,57 6,85 0,26 5,57 5,85 0,32 1,57 12,79 11,22 27,32 40,63"/>
  <path id="path58721" class="fil0 str0" d="M37312 39063c-8,-11 -15,-43 -40,-68 -25,-26 -34,-31 -34,-68 0,-41 5,-50 29,-74 24,-24 42,-35 74,-51 24,-12 38,-39 56,-57 20,-19 17,-49 17,-79 0,-46 -29,-56 -11,-91 15,-30 35,-20 23,-68 -3,-11 -76,-29 -91,-29 -37,0 -68,-5 -102,-5 -20,0 -53,-39 -57,-57 -7,-29 -18,-54 -29,-74 -17,-34 -32,-38 -62,-68 -28,-28 -41,-26 -57,-57 -16,-33 -22,-45 -39,-62 -17,-17 -61,-24 -74,-34 -30,-23 -46,-104 -63,-137 -14,-29 60,-59 74,-73 28,-29 40,-42 40,-86 0,-39 -14,-71 -34,-90 -30,-31 4,-39 22,-57 20,-20 39,-17 74,-17 50,0 90,40 142,40 55,0 73,7 97,-40 13,-26 11,-55 11,-85 0,-36 -15,-50 -23,-80 -8,-35 1,-55 29,-62 52,-13 122,0 176,0 36,0 22,-42 22,-74 0,-38 -3,-59 18,-80 14,-14 32,-59 39,-73 10,-19 -24,-76 -28,-80 -24,-24 -54,-28 -80,-34 -32,-8 -67,-6 -102,-6 -36,0 -71,2 -96,-11 -34,-17 -47,-41 -68,-62 -19,-19 -35,-25 -63,-46 -26,-19 -33,-55 -45,-79 -10,-19 -37,-43 -51,-57 -20,-20 -38,-27 -57,-46 -12,-11 -78,3 -91,6 -27,7 -49,61 -62,74 -25,25 -27,30 -57,0 -30,-29 -49,-36 -68,-74 -9,-17 -56,-65 -74,-79 -21,-16 -32,-34 -57,-40 -32,-8 -55,1 -79,-11 -34,-17 -49,-21 -74,-46 -22,-21 -29,-25 -29,-62 0,-35 3,-71 -5,-102 -7,-25 -26,-29 -40,-57 -6,-13 -51,-34 -62,-46 -20,-19 -39,-48 -52,-73 -11,-23 -10,-61 -17,-86 -8,-32 -39,-28 -62,-34 -27,-6 -73,-31 -91,-45 -6,-4 -6,-82 -6,-91 0,-36 -13,-62 -28,-91 -8,-16 -43,-32 -57,-39 -24,-13 -32,-25 -51,-34"/>
  <path id="path58733" class="fil0 str0" d="M28230 35807c9,7 6,69 6,97 0,39 -11,47 -31,73 -19,27 -36,56 -36,91 0,50 3,68 42,98 30,22 35,40 61,67 9,9 0,76 0,91 0,49 -21,75 -30,122 -6,29 0,67 0,97 0,47 6,92 6,140 0,8 0,16 0,24 0,51 67,61 6,91 -36,19 -54,29 -85,37 -27,7 -37,49 -49,73 -11,23 0,89 0,116 0,45 16,80 43,115 22,30 31,87 48,122 21,42 74,49 122,49 46,0 83,-6 128,-6 46,0 101,-8 140,12 4,2 30,72 36,85 5,10 132,0 146,0 37,0 62,63 80,97 17,35 49,70 66,0 18,-69 49,-67 110,-67 41,0 77,25 122,25 26,0 37,-62 48,-86 21,-41 18,-54 80,-54 38,0 58,-19 97,-19 56,0 103,35 115,86 8,30 19,50 19,91 0,21 80,36 103,36 31,0 61,0 91,0 25,0 88,19 128,19 41,0 81,0 122,0 49,0 76,-1 116,-25 35,-21 41,-36 85,-36 10,0 20,0 30,0"/>
  <path id="path58735" class="fil0 str0" d="M28351 37328c49,0 6,97 6,146 0,41 30,70 37,97 8,33 16,75 30,104 19,37 25,106 -12,115 -4,2 -95,-63 -103,-67 -51,-25 -43,76 -43,98 0,67 15,98 85,115 31,8 19,63 19,92 0,42 13,86 30,121 14,29 6,78 18,110 16,39 25,73 25,116 0,32 0,64 0,97 0,36 -9,52 -25,73 -16,22 -51,40 -79,61 -26,20 -84,16 -115,24 -37,9 -59,2 -92,18 -21,11 -49,37 -67,55 -25,25 -40,51 -54,79 -14,28 -41,52 -55,79 -23,47 -10,61 37,80 39,15 70,20 109,30 31,8 77,40 97,61 22,22 73,54 98,73 21,16 18,51 18,85 0,46 -31,56 -61,85 -23,23 -81,23 -109,31 -42,10 -8,47 18,60 20,10 18,42 18,73 0,46 -16,55 -49,80 -30,22 -83,12 -121,12 -37,0 -56,5 -85,12 -34,8 -75,75 -37,85 35,9 30,45 30,79 0,33 -30,49 -54,55 -39,10 -93,0 -134,0 -41,0 -78,6 -116,6 -38,0 -74,2 -103,-12 -22,-11 -37,-37 -55,-55 -11,-11 -89,0 -109,0 -31,0 -61,0 -92,0 -39,0 -49,11 -73,43 -45,59 -38,54 -115,54 -35,0 -69,0 -104,0 -47,0 -84,-4 -128,-12 -4,0 -40,82 -42,92 -16,61 -70,48 -122,48 -57,0 -75,-8 -115,-18 -10,-2 -74,108 -80,116 -6,8 -12,16 -18,24 -28,38 -60,30 -103,30 -40,0 -42,24 -67,49 -30,30 -47,24 -92,24 -42,0 -58,-30 -103,-30 -46,0 -50,2 -79,30 -9,9 -19,20 -24,25"/>
  <path id="path58737" class="fil0 str0" d="M30980 37985c-26,26 26,70 43,104 20,39 -24,53 30,66 38,10 95,1 122,-12 44,-22 44,-26 73,-54 22,-22 46,-41 79,-49 31,-8 64,-6 97,-6 42,0 42,34 49,61 8,33 2,63 24,85 20,19 23,43 31,73 8,34 0,80 0,115 0,38 6,67 6,104 0,44 -5,92 6,134 10,40 15,73 61,73 31,0 27,57 48,79 25,24 43,76 43,109 0,33 24,72 24,110 0,38 19,92 37,128 18,37 29,54 61,85 24,24 64,42 97,42 33,0 53,19 91,19 55,0 101,45 146,73 41,24 47,74 67,115 16,31 20,64 31,86 20,40 -1,86 -19,121 -18,37 -32,46 -42,85 -5,22 -12,47 -12,80 0,52 -17,71 -49,103 -24,24 -49,37 -73,61 -26,26 -46,57 -67,85 -25,34 -14,61 24,61 38,0 65,2 86,12 11,6 33,-4 42,-6 37,18 50,40 85,49 4,0 0,83 0,91 0,26 -29,33 -42,61 -13,26 -37,28 -37,73 0,28 40,47 55,55 30,14 66,22 97,30 34,8 67,6 92,24 26,20 42,36 67,55 25,19 28,71 48,97 26,35 48,31 98,31 43,0 75,4 115,12 45,9 77,26 110,43 32,16 95,6 121,12 10,2 6,120 6,134 0,47 5,75 25,115 22,45 43,76 55,122 9,37 6,77 6,116 0,20 0,40 0,60"/>
  <path id="path57591" class="fil0 str0" d="M24345 40630c69,0 119,57 193,57 90,0 67,-22 114,-68 35,-36 51,-81 68,-114"/>
  <path id="path57591_0" class="fil0 str1" d="M21268 40005c-19,29 23,152 23,239 0,76 0,151 0,227 0,64 0,129 0,193 0,89 45,150 45,238 0,68 29,102 91,148 63,47 145,95 204,125 55,27 69,95 69,147 0,95 -110,57 -194,57 -71,0 -143,0 -215,0 -67,0 -115,24 -159,57 -72,54 -166,-23 -193,-68 -35,-59 -32,-120 -57,-170 -35,-71 -97,-74 -136,-35 -44,44 -69,146 -91,182 -38,64 -120,-7 -159,-45 -55,-55 -38,-134 -102,-182 -59,-44 -127,-61 -182,-102 -29,-22 -229,155 -250,170 -67,51 -139,83 -215,102 -88,22 -121,-155 -137,-215 -12,-50 0,-119 0,-171 0,-85 -156,10 -181,23 -60,30 -144,53 -182,91 -54,54 -127,71 -182,125 -40,41 -22,135 -11,181 17,67 46,107 46,182 0,68 0,136 0,204 0,68 38,127 79,182 45,61 45,77 45,171 0,107 -46,137 -90,227 -33,66 -95,96 -114,170 -19,75 19,99 -11,159 -45,89 -192,113 -284,113 -51,0 -94,61 -125,103 -35,46 -23,116 -23,181 0,132 -1,123 -79,182 -77,58 -125,42 -182,136 -48,80 -72,149 -159,171 -97,24 -110,33 -170,113 -38,50 -5,149 11,182 27,53 34,164 34,227 0,97 -159,148 -227,182 -76,37 -219,37 -295,0 -72,-36 -126,12 -170,34 -57,28 -34,170 -23,215 16,66 95,140 136,182 46,46 178,117 239,148 37,18 110,147 136,181 43,57 170,77 238,91 77,15 143,61 216,80 61,15 113,22 182,22 102,0 91,-8 91,-102 0,-69 -5,-139 11,-204 21,-83 90,-57 170,-57 75,0 92,127 114,170 28,56 123,41 181,12 77,-39 143,-70 216,-125 82,-61 204,-93 295,-148 51,-30 135,-65 193,-79 92,-23 146,-57 262,-57 83,0 162,-8 238,23 70,28 100,69 159,113 54,41 98,108 114,171 13,53 11,111 11,170 0,69 7,131 23,193 16,64 117,57 181,57 26,0 55,-160 68,-193 22,-55 89,-112 137,-159 52,-53 39,-151 22,-216 -21,-85 -69,-126 -125,-182 -46,-47 -129,-97 -181,-136 -59,-44 -75,-171 -102,-227 -23,-46 -34,-117 -46,-148 -30,-75 6,-216 23,-284 17,-70 6,-149 22,-215 13,-52 96,-93 137,-114 48,-24 102,270 102,329 0,90 -6,172 79,193 31,8 61,16 91,23 82,21 109,-59 137,-113 36,-73 -31,-179 -57,-205 -69,-69 -76,-100 23,-125 71,-18 106,19 158,-34 44,-43 32,-128 46,-181 13,-54 77,-67 113,-103 37,-36 133,-55 182,-68 55,-14 119,60 159,80 49,24 82,-91 136,-91 59,0 128,-1 171,-12 40,-10 91,-103 102,-124 35,-70 58,-94 91,-159 32,-65 48,-125 90,-182 28,-37 57,-77 69,-125 13,-53 0,-127 0,-182 0,-78 -30,-127 -57,-181 -20,-40 -63,-77 -114,-102 -41,-21 -72,-72 -102,-103 -53,-53 -84,-73 -125,-113 -46,-46 -71,-92 -113,-148 -63,-83 -77,-214 -114,-306 -33,-83 -47,-56 12,-114 47,-48 56,-68 124,-68 75,0 107,-7 148,34 25,25 59,95 68,114 25,50 96,44 114,113 18,72 22,133 68,193 31,42 74,55 125,80 16,8 42,169 45,181 13,53 93,60 125,103 44,58 32,68 125,68 44,0 101,-79 136,-125 32,-43 34,-134 46,-182 18,-75 51,-101 113,-147 43,-33 82,-60 114,-103 37,-49 34,-142 34,-204 0,-57 0,-114 0,-170 0,-55 23,-108 23,-171 0,-76 46,-105 102,-147 61,-46 185,-23 261,-23 151,0 116,-18 216,-68 78,-39 121,-80 181,-125 44,-33 240,0 318,0 53,0 106,0 159,0"/>
  <path id="path57591_1" class="fil0 str1" d="M5963 30284c0,-74 0,-245 0,-363 0,-115 174,-131 266,-154 68,-17 105,-124 140,-182 52,-87 22,-132 126,-210 85,-64 169,-113 237,-181 90,-90 179,-133 238,-252 55,-111 157,-201 210,-308 42,-83 114,-131 181,-181 73,-55 135,-117 196,-154 76,-45 120,-78 182,-140 72,-72 210,-85 279,-154 54,-53 102,-98 154,-167 59,-79 133,-121 196,-168 59,-44 89,-80 154,-112 86,-43 67,-70 195,-70 77,0 155,3 224,-14 43,-10 83,-97 98,-126 31,-62 82,-109 112,-139 43,-44 87,-89 125,-140 45,-59 56,-93 56,-182 0,-95 28,-163 28,-252 0,-83 -51,-133 -98,-195 -41,-56 -70,-99 -97,-154 -41,-80 -26,-131 0,-182 32,-66 142,-42 223,-42 144,0 42,-70 -14,-126 -55,-55 -87,-63 -125,-139 -38,-74 -49,-139 -70,-224 -27,-106 -86,-215 -112,-321 -23,-93 -43,-129 -84,-210 -27,-53 -76,-106 -112,-154 -51,-67 -89,-151 -126,-224 -30,-60 -109,-134 -140,-195 -30,-62 -41,-93 -41,-182 0,-70 13,-146 13,-224 0,-74 0,-138 14,-195 18,-69 -1,-157 -27,-210 -29,-58 -41,-65 -56,-126"/>
  <path id="path57591_2" class="fil0 str1" d="M6131 35135c-19,77 -181,-42 -237,14 -101,101 -84,-26 -84,-126 0,-82 14,-119 14,-196 0,-31 -166,-118 -182,-126 -70,-35 -100,-52 -196,-28 -95,24 -85,-99 -154,-167 -39,-40 -76,-167 -97,-210 -14,-28 -126,-70 -154,-84 -97,-48 -198,-71 -252,-126 -70,-70 -88,-186 -112,-279 -20,-80 -38,-152 -126,-196 -89,-45 -97,-72 -97,-168 0,-83 111,-138 111,-237 0,-67 35,-147 70,-182 49,-48 79,-74 154,-112 74,-37 121,-116 154,-182 41,-82 62,-166 84,-251 19,-78 -2,-150 28,-224 37,-94 60,-117 139,-196 52,-51 125,-82 182,-139 54,-54 54,-103 70,-168 23,-91 -25,-127 56,-168 93,-46 -58,-137 154,-84 124,31 213,98 335,98 82,0 154,27 196,70 36,36 0,147 0,-14 0,-85 7,-144 -42,-210 -43,-57 -68,-107 -98,-167 -26,-53 -28,-105 -28,-182 0,-70 0,-140 0,-210 0,-76 14,-137 14,-210 0,-74 0,-149 0,-223 0,-70 0,-140 0,-210"/>
  <path id="path57591_3" class="fil0 str1" d="M21340 40083c0,-50 -75,-173 -111,-209 -52,-52 -145,-68 -210,-84 -53,-14 -119,-89 -210,-112 -18,-5 -37,-9 -56,-14 -75,-19 -119,-70 -153,-140 -30,-59 -59,-75 -84,-126 -31,-62 -14,-140 14,-195 40,-82 57,-110 0,-168 -47,-47 -102,-46 -140,-84 -64,-63 -129,-103 -28,-154 71,-36 70,-85 70,-167 0,-96 10,-119 42,-182 43,-87 56,-104 56,-210 0,-49 -98,-77 -140,-98 -81,-40 -113,72 -126,126 -26,105 -9,81 -70,0 -33,-44 -82,-96 -126,-140 -56,-57 -85,-113 -140,-154 -67,-50 -104,-104 -139,-139 -48,-48 -103,-61 -154,-112 -59,-59 -104,-54 -126,-140 -15,-59 5,-158 14,-196 16,-62 16,-147 28,-195 21,-85 29,-115 56,-168 18,-36 66,-49 84,-84 30,-60 42,-75 42,-168 0,-84 -14,-125 -28,-181 -11,-45 56,-80 56,-126 0,-23 -70,-104 -70,-182 0,-99 -8,-107 -84,-126 -76,-19 -51,-66 -126,-28 -78,39 45,112 -98,112 -82,0 -108,-39 -154,-84 -49,-50 -87,-117 -125,-168 -48,-63 -44,-113 -98,-167 -51,-51 -86,-115 -112,-168 -27,-54 -95,-67 -126,-98 -34,-34 -117,-66 -154,-84 -68,-34 -92,-42 -181,-42 -81,0 -138,6 -182,28 -39,19 -62,180 -70,196 -35,71 -148,-45 -154,-70 -25,-100 24,-152 -84,-98 -87,44 -93,26 -112,-84 -3,-22 98,-80 98,-154 0,-71 -113,-101 -153,-111 -80,-20 -128,58 -154,84 -77,76 -35,35 -112,-42 -53,-54 -66,-70 -154,-70 -41,0 -75,-122 -84,-140 -18,-37 -97,-70 -125,-84 -65,-32 -112,-77 -154,-98 -64,-32 -112,-84 -154,-126 -55,-54 -91,-119 -126,-153 -35,-36 -141,-29 -195,-56 -53,-27 -134,-14 -196,-14 -54,0 -132,-14 -196,-14 -19,0 -37,0 -56,0 -36,0 -34,-75 -70,-84 -88,-22 -133,63 -181,112 -56,55 -171,-33 -182,-56 -15,-29 -84,190 -84,223 0,99 -54,84 -140,84 -91,0 -137,3 -196,-56 -59,-59 -29,-97 -139,-97 -138,0 -126,27 -154,139 -21,84 -155,-35 -196,-56 -76,-37 -43,-83 -154,-83 -104,0 -89,22 -111,111 -16,61 0,147 0,210 0,85 -44,86 -98,140 -75,75 -84,84 -196,84 -50,0 -101,-39 -168,-56 -84,-21 -158,30 -209,56 -65,32 -120,-3 -182,28 -73,36 -115,49 -196,70 -76,19 -99,73 -126,126 -25,50 -14,149 -14,209 0,97 -3,126 -97,126 -55,0 -73,98 -168,98 -95,0 -176,28 -266,28 -93,0 -186,0 -279,0 -93,0 -170,35 -252,56 -88,22 -116,70 -224,70 -70,0 -140,0 -209,0 -70,0 -140,0 -210,0 -70,0 -140,0 -210,0 -70,0 -140,0 -209,0 -91,0 -127,84 -182,125 -55,41 -92,94 -154,140 -40,30 -50,107 -84,140 -59,59 -80,109 -140,154 -48,36 -177,14 -237,14 -99,0 -193,1 -252,-28 -53,-27 -42,-158 -42,-210 0,-52 -107,-135 -126,-154 -40,-40 -89,-75 -126,-112 -61,-61 -84,-140 -125,-195 -42,-56 -58,-86 -98,-126 -50,-50 -110,-69 -168,-112 -80,-60 -182,28 -238,70 -51,38 -146,58 -195,70 -69,17 -166,0 -238,0 -75,0 -154,0 -210,-14 -70,-18 -121,-136 -153,-168 -21,-21 -177,0 -210,0 -105,0 -128,-2 -196,-70 -45,-45 -96,-90 -140,-111 -70,-36 -197,-14 -279,-14 -79,0 -143,-14 -224,-14 -70,0 -140,0 -210,0 -102,0 -102,-61 -153,-112 -47,-47 -77,-119 -112,-154 -48,-48 -124,-68 -168,-112 -57,-57 -122,-59 -209,-42 -97,20 -162,130 -182,210 -16,64 -75,79 -112,98"/>
  <path id="path57591_4" class="fil0 str1" d="M34076 45381c-35,35 -98,134 -98,238 0,97 19,126 -84,126 -78,0 -88,46 -126,84 -54,53 -96,81 -182,98 -38,7 -100,131 -112,153 -33,68 -42,105 -42,196 0,106 -8,98 -111,98 -84,0 -104,-62 -140,-98 -56,-55 -110,-42 -196,-42 -95,0 -174,56 -280,56 -99,0 -175,5 -265,28 -93,23 -143,112 -196,182 -44,59 -114,99 -168,126 -67,34 -108,52 -153,97 -64,64 -99,115 -140,196 -35,69 -38,153 -56,224 -19,75 -43,100 -70,153 -21,42 -108,75 -140,98 -63,48 -162,82 -237,112 -79,32 -107,120 -154,182 -42,55 -85,42 -168,42 -73,0 -144,-3 -210,14 -76,19 -163,-5 -237,14 -68,17 -170,14 -238,14 -115,0 -180,-21 -238,-98 -49,-67 -54,-97 -97,-140 -31,-31 -163,-14 -210,-14 -64,0 -122,-65 -154,-98 -57,-57 -75,-108 -112,-181 -27,-54 -34,-101 0,-168 23,-46 96,-73 140,-84 94,-24 132,40 154,-70 13,-68 0,-154 0,-224 0,-100 2,-213 -14,-293 -19,-94 36,-107 84,-154 45,-45 26,-147 42,-210 20,-79 14,-167 14,-251 0,-93 -5,-149 -42,-224 -22,-43 -84,-69 -112,-98 -54,-54 -105,-91 -140,-126 -58,-57 -87,-86 -126,-125 -40,-41 -118,-70 -182,-70 -96,0 -150,1 -223,56 -47,34 -160,12 -210,0 -59,-15 -112,-112 -154,-154 -52,-53 -108,-94 -153,-140 -46,-46 -77,-92 -140,-140 -62,-46 -75,-79 -140,-112 -66,-33 -127,-42 -196,-42 -75,0 -151,42 -237,42 -82,0 -153,28 -238,28 -85,0 -116,88 -168,140 -38,39 -122,-182 -126,-196 -15,-60 -41,-89 -41,-181 0,-68 53,-155 83,-196 56,-74 99,-88 196,-112 103,-26 142,-16 210,-84 58,-58 106,-92 154,-140 60,-60 127,-74 209,-139 73,-58 170,-93 252,-126 97,-39 177,-86 279,-112 79,-20 206,-80 266,-140 59,-59 137,-109 182,-154 43,-43 155,-29 210,-84 43,-43 99,-71 139,-111 64,-64 151,-56 238,-56 123,0 175,14 238,-70 46,-62 70,-91 70,-182 0,-60 -131,-88 -182,-98 -93,-18 56,-184 56,-279 0,-83 -69,-111 -112,-154 -41,-41 -28,-116 -28,-182 0,-74 -122,-46 -154,-14 -58,58 -68,145 -84,224 -22,110 -4,125 -112,98 -100,-25 -180,-111 -237,-140 -56,-28 -115,-92 -182,-126 -50,-25 -70,-58 -84,-112 -74,-37 45,-155 -98,-84 -30,16 -74,145 -112,182 -51,51 -93,42 -181,42 -60,0 -65,-56 -112,-56 -51,0 -76,84 -126,84 -75,0 -149,0 -224,0 -70,0 -139,0 -209,0 -67,0 -142,58 -196,98 -75,56 -115,88 -210,112 -62,15 -155,-1 -209,-14 -86,-22 -198,2 -280,-14 -91,-19 -133,-77 -196,-140 -50,-50 -158,-84 -195,-112 -54,-40 -73,-59 -112,-98 -50,-50 -151,-66 -196,-112 -55,-55 -147,-87 -196,-112 -69,-34 -139,-62 -209,-97 -61,-31 -91,-91 -126,-126 -65,-65 -132,82 -140,98 -47,94 88,70 140,70 31,0 122,-137 140,-154 65,-66 140,-58 167,-168 20,-76 50,-86 70,-168 12,-48 -147,-94 -181,-112 -58,-28 -154,-7 -196,-28 -69,-34 -86,-83 -182,-83 -51,0 -127,141 -154,167 -45,46 -100,-15 -153,-56 -68,-51 -101,-87 -140,-125 -54,-54 -81,-88 -28,-140 50,-50 242,-14 307,-14 92,0 178,14 266,14 91,0 245,67 336,98 75,25 200,0 279,0 94,0 188,-11 266,28 68,34 157,41 237,41 97,0 123,3 168,-41 53,-53 13,-125 70,-182 59,-59 173,-96 252,-112 91,-18 76,-70 -28,-70 -55,0 -161,103 -210,140 -50,37 -124,42 -196,42 -84,0 -74,-98 -167,-98 -92,0 -146,18 -196,56 -79,59 -143,-81 -154,-126 -23,-92 -97,-70 -196,-70 -68,0 -101,-88 -139,-140 -44,-58 -72,-102 -98,-153 -29,-59 -45,-101 -84,-140 -58,-58 56,156 56,237 0,84 -5,150 -28,196 -44,88 -111,70 -196,70 -67,0 -150,-3 -196,-14 -69,-17 -82,-42 -167,-42 -64,0 -86,56 -168,56 -41,0 -109,-81 -126,-98 -54,-54 -51,-61 -70,-154 -16,-79 122,-150 168,-195 57,-58 161,-140 42,-140 -29,0 -108,176 -112,182 -43,58 -41,99 -112,28 -63,-64 -61,-146 112,28 77,77 5,151 -56,181 -68,34 -85,67 -154,84"/>
  <path id="path57591_5" class="fil0 str1" d="M32733 41495c-1790,0 856,-27 -587,238 -69,0 -141,21 -181,42 -71,35 -41,127 0,167 70,71 139,17 139,126 0,72 -26,138 -56,168 -45,46 -107,122 -139,154 -46,45 -95,39 -140,84 -46,46 -88,-162 -98,-182 -45,-89 -56,-104 -56,-210 0,-42 128,-128 140,-140 65,-64 112,20 112,-111 0,-48 -144,-28 -182,-28 -70,0 -140,0 -210,0 -50,0 -91,-44 -139,-56 -20,-5 86,183 -56,112 -99,-50 -142,-88 -182,-168 -35,-69 -31,-151 -112,-70 -52,52 -72,73 -98,126 -26,52 -14,139 -28,195 -16,65 -117,38 -154,28 -70,-17 -107,-107 -153,-153 -47,-47 -51,-79 -126,-98 -81,-20 -138,48 -182,70 -87,43 -62,-153 -210,-42 -72,54 -122,55 -139,126 -29,114 78,111 153,111 87,0 161,-12 182,70 25,101 -22,146 42,210 45,45 202,42 266,42 92,0 129,-36 209,-56 88,-22 106,80 140,126 58,77 -44,131 56,182 81,40 283,0 378,0 101,0 157,-3 209,-42 76,-57 126,32 126,84 0,86 -49,82 -112,97 -57,15 42,84 126,42 79,-39 130,-84 224,-84 56,0 11,118 -14,168 -3,5 160,-12 195,-84 38,-75 55,-181 -70,-56 -90,90 -117,221 -167,322 -84,166 80,78 154,42 72,-37 151,-93 195,-126 69,-52 153,13 182,42 21,21 0,188 0,223 0,109 52,112 154,112 86,0 148,9 223,28 88,22 130,102 182,154 45,45 34,158 84,224 62,82 109,150 168,209 37,37 56,135 56,196 0,75 0,149 0,224 0,99 5,119 69,167 80,60 206,70 308,70 83,0 175,23 252,42 71,18 131,28 209,28 93,0 210,4 280,-14 97,-24 116,-77 154,-153 39,-79 118,-140 223,-140 46,0 131,-75 140,-112 24,-96 9,-196 112,-196 103,0 120,90 140,168 27,109 68,98 182,98 83,0 147,25 167,-56 25,-97 -35,-152 84,-182 79,-20 228,-60 280,-112 51,-51 140,-70 210,-84 95,-19 174,28 265,28 106,0 184,23 280,42 67,14 110,28 195,28 78,0 154,51 154,126 0,103 53,154 -70,154 -80,0 -163,28 -251,28 -72,0 -99,99 -126,153 -34,68 -42,92 -42,182 0,70 0,140 0,210 0,70 0,140 0,210 0,85 17,165 -42,223 -65,65 -203,98 -293,98 -106,0 -149,56 -238,56 -119,0 -253,14 -378,14 -70,0 -139,0 -209,0 -76,0 -71,56 -154,56 -110,0 -150,-4 -238,-70 -52,-39 -73,-76 -98,-126 -19,-38 -216,-70 -251,-70 -85,0 -149,-4 -196,-28 -70,-35 -109,82 -140,112 -43,44 -75,103 -126,154 -7,8 -64,23 -83,28"/>
  <path id="path57591_6" class="fil0 str1" d="M38255 38420c-32,43 -42,118 -42,210 0,55 -123,145 -153,167 -70,52 -46,102 -140,126 -97,24 -155,-49 -238,-28 -41,10 -130,136 -154,168 -51,69 -97,112 -181,112 -36,0 -154,35 -182,42 -56,13 -114,99 -140,125 -63,63 -68,111 -126,168 -94,95 40,91 -154,42 -95,-24 -133,-51 -209,-70 -35,-8 -179,61 -224,70 -71,14 -131,60 -182,98 -79,59 -101,140 -153,210 -52,69 -105,132 -154,181 -35,35 -133,7 -168,42 -37,37 -190,-18 -210,-28 -62,-31 -100,-67 -167,-84 -75,-18 -195,-3 -266,14 -81,21 -81,70 -182,70 -66,0 -134,92 -167,126 -76,75 -123,95 -196,168 -68,67 -79,107 -140,168 -65,64 -129,73 -196,139 -50,50 -95,53 -139,112 -55,72 -142,115 -182,196 -13,26 -91,119 -112,140 -64,63 -69,84 -154,42 -73,-37 -96,-80 -126,-140 -21,-42 -77,-81 -111,-126 -44,-58 -85,-85 -112,-140 -39,-76 78,-50 98,28 18,75 4,135 28,182 32,65 -5,-159 -56,-210 -12,-11 50,123 111,154 31,15 -55,-139 -55,-140 -17,-16 -38,-28 -56,-42 -62,-46 97,133 97,210 0,80 -6,138 -27,182 -32,64 -78,98 -112,167 -42,84 -69,83 -140,154 -45,45 -90,42 -168,42 -70,0 -140,0 -210,0 -72,0 -62,26 -84,70"/>
  <path id="path57591_7" class="fil0 str1" d="M43092 29375c3,0 -105,148 -126,168 -50,51 -84,82 -84,168 0,73 -2,144 14,210 5,19 168,90 182,97 57,29 73,183 84,238 14,69 14,137 14,210 0,70 0,140 0,209 0,75 -101,139 -140,168 -50,38 -96,100 -126,140 -41,55 -72,128 -112,182 -22,29 -160,19 -195,28 -40,9 -87,120 -112,153 -21,28 -110,44 -140,84 -56,75 -78,104 -14,168 51,51 14,98 140,98 76,0 145,14 224,14 27,0 108,56 181,56 75,0 149,0 224,0 71,0 52,-68 154,-42 65,16 42,126 42,182 0,38 -144,42 -182,42 -82,0 -111,39 -140,97 -1,2 -276,27 -280,28 -58,24 -82,84 -139,98 -57,14 -56,136 -56,196 0,86 -28,113 -28,196 0,70 0,139 0,209 0,89 89,56 168,56 37,0 111,-42 181,-42 60,0 56,137 56,182 0,78 35,106 70,154 42,56 -10,129 42,181 61,61 84,9 84,140 0,112 -19,89 -84,154 -54,54 -63,89 28,112 74,18 160,14 238,14 96,0 44,120 28,154 -13,24 -102,93 -126,125 -48,95 -68,163 -112,252 -22,44 0,159 0,210 0,89 -10,112 -98,112 -57,0 54,173 70,181 46,23 28,117 28,182 0,70 0,140 0,210 0,38 -100,105 -126,112 -60,15 -128,14 -196,14 -80,0 -145,13 -223,13 -83,0 -118,62 -168,112 -50,51 -91,7 -126,-28 -39,-38 -109,-58 -154,-70 -68,-17 -156,2 -209,28 -70,35 -75,56 -168,56 -81,0 -135,-4 -182,-28 -85,-42 -94,-79 -181,-14 -55,42 -125,28 -196,28 -82,0 -132,3 -182,28 -50,26 -42,105 -42,168 0,75 0,170 -14,224 -18,72 -70,117 -70,209 0,79 -63,70 -139,70 -101,0 -115,3 -168,56 -66,66 -28,133 -112,154 -60,15 -128,14 -196,14 -96,0 -116,23 -181,56 -60,30 -72,87 -98,140 -28,54 -16,159 -28,209 -14,55 -28,124 -28,196 0,75 0,149 0,224 0,67 -3,150 -14,195 -18,72 14,56 112,56 48,0 28,135 28,182 0,75 -65,119 -112,154 -79,59 -70,125 -70,224 0,93 0,112 0,195 0,69 -67,112 -140,112 -102,0 -124,-25 -168,-84 -50,-67 -174,3 -237,28 -76,31 -227,0 -308,0 -103,0 -120,8 -168,56 -84,84 -126,70 -293,70 -112,0 -119,56 -182,140 -21,28 -107,56 -126,70"/>
  <path id="path57591_8" class="fil0 str1" d="M36997 27348c80,0 132,37 154,126 20,79 66,95 84,182 18,90 49,61 140,84 90,22 110,-62 139,56 16,61 0,146 0,209 0,86 1,140 42,196 43,57 48,70 154,70 84,0 130,23 168,98 26,52 160,115 210,140 53,26 130,68 167,83 51,21 73,108 84,154 18,71 93,131 140,154 47,23 167,-7 196,-14 47,-12 42,-155 42,-196 0,-82 28,-129 28,-209 0,-128 47,-116 167,-140 68,-14 120,-36 210,0 98,39 87,64 56,126 -37,73 -27,125 56,125 74,0 149,0 223,0 70,0 140,0 210,0 101,0 159,-12 210,56 52,70 100,64 168,98 77,39 116,37 153,112 22,44 180,42 224,42 2,0 88,56 154,56 91,0 124,1 167,-42 56,-56 -14,-112 70,-154 95,-47 180,10 210,70 38,75 10,149 56,210 56,75 123,112 224,112 103,0 127,-2 181,-56 28,-28 198,7 224,14 79,19 154,-22 154,84 0,86 3,145 28,195 34,68 134,97 195,112 67,17 147,-2 210,14 88,22 54,113 168,56 68,-34 137,-73 154,-140 8,-32 132,-61 167,-70 61,-15 147,0 210,0 9,0 19,0 28,0"/>
  <path id="path57591_9" class="fil0 str1" d="M30273 25182c41,0 169,0 252,0 72,0 87,-59 140,-98 53,-40 126,42 181,56 59,14 153,3 196,14 48,12 54,89 98,111 61,31 156,14 223,14 70,0 140,0 210,0 73,0 112,-41 140,-97 21,-42 247,-12 294,0 97,24 111,-2 111,111 0,70 0,140 0,210 0,62 41,120 56,182 8,32 179,14 210,14 63,0 144,-86 196,-112 12,-6 14,177 14,196 0,86 -50,113 -70,195 -21,83 12,165 56,224 59,80 98,-24 98,126 0,85 82,104 97,167 24,94 29,141 70,224 30,60 -15,157 -28,182 -27,55 -79,82 -97,154 -15,57 75,151 97,195 28,55 5,149 28,196 35,70 113,109 182,126 59,15 85,-56 168,-14 64,32 97,95 112,154 17,70 10,152 28,223 19,76 172,-21 223,-42 65,-25 78,-150 112,-195 32,-42 134,-84 196,-84 70,0 140,0 210,0 91,0 116,-40 181,-56 113,-28 140,45 210,98 85,64 112,109 112,209 0,68 114,84 168,84 64,0 174,-29 223,-42 90,-22 161,60 238,98 71,36 105,104 154,168 38,51 153,-9 153,-56 0,-82 94,-105 140,-140 48,-35 117,-75 154,-112 60,-60 107,-81 168,-111 90,-46 145,-70 251,-70 90,0 136,-13 196,-28 55,-14 142,-100 168,-126 42,-42 78,-78 112,-112 45,-45 90,-54 153,-70 61,-15 147,0 210,0"/>
  <path id="path57591_10" class="fil0 str1" d="M8661 24035c-27,-41 -83,-148 -83,-237 0,-63 -42,-102 -42,-182 0,-73 -3,-145 14,-210 10,-44 162,-33 195,-42 61,-15 147,0 210,0 68,0 114,57 168,70 62,16 53,56 153,56 70,0 140,0 210,0 89,0 177,0 266,0 59,0 93,-149 126,-182 70,-70 125,-70 125,-181 0,-92 -7,-133 56,-196 58,-58 123,-123 168,-168 72,-71 102,-84 210,-84 78,0 156,14 237,14 70,0 140,0 210,0 70,0 140,0 210,0 70,0 140,0 209,0 70,0 140,0 210,0 70,0 140,0 210,0 74,0 149,0 223,0 85,0 12,-98 126,-70 74,19 64,53 126,84 64,32 132,28 210,28 70,0 139,0 209,0 51,0 86,56 168,56 70,0 140,0 210,0 75,0 118,-19 195,0 68,17 146,12 210,28 61,15 147,0 210,0 57,0 107,41 168,56 30,8 71,156 83,182 30,59 116,42 182,42 70,0 140,0 210,0 8,0 120,96 140,111 47,36 71,42 167,42 77,0 155,-3 224,14 84,21 149,10 196,56 15,15 147,60 168,70 49,25 9,112 125,112 70,0 140,0 210,0 70,0 100,-109 168,-126 84,-21 131,12 154,56 39,79 69,116 69,210 0,52 34,164 56,209 24,47 98,66 98,168 0,91 133,68 182,56 94,-24 115,11 168,-42 51,-51 93,-69 153,-84 64,-16 155,18 196,28 86,22 98,53 98,140 0,69 14,135 14,210 0,111 17,88 112,111 54,14 127,-56 182,-83 63,-32 41,-130 41,-196 0,-95 30,-112 126,-112 31,0 105,105 126,126 19,19 191,6 224,14 83,21 112,-57 154,-98 41,-41 94,-47 139,-70 80,-40 133,28 154,70 29,59 79,67 112,112 47,93 -78,126 98,126 63,0 105,-78 154,-126 33,-34 147,-14 195,-14 41,0 68,97 126,126 51,25 28,159 28,209 0,98 -8,126 98,126 3,0 33,98 126,98 90,0 83,-108 83,-182 0,-87 -6,-133 42,-182 45,-44 50,-83 154,-83 78,0 110,-26 154,-70 48,-49 97,-77 168,-112 56,-29 103,-28 181,-28 106,0 98,9 98,112 0,101 12,123 70,181 66,66 59,67 84,168 15,61 0,147 0,210 0,80 86,70 154,70 70,0 140,0 209,0 54,0 117,-107 126,-126 21,-42 121,-76 154,-84 68,-17 52,-79 126,-98 72,-18 149,12 181,28 78,39 -45,112 98,112 70,0 140,0 210,0 76,0 83,-42 182,-42 74,0 149,0 223,0 70,0 140,0 210,0 82,0 137,-1 196,28 45,23 62,139 84,182 36,73 52,121 98,181 58,78 81,142 153,196 42,32 155,32 196,42 61,15 72,-86 98,-112 47,-47 98,-69 112,-126 15,-61 0,-146 0,-209 0,-84 -36,-123 -98,-154 -46,-23 -28,-127 -28,-182 0,-54 -63,-118 -98,-153 -29,-29 -14,-143 -14,-196 0,-90 42,-87 42,-168 0,-94 -2,-124 42,-168 68,-67 126,-41 126,-140 0,-90 66,-94 112,-139 39,-40 37,-108 97,-168 58,-58 52,-96 70,-168 12,-47 154,-111 182,-126 37,-18 18,-116 112,-140 89,-22 70,-104 70,-181 0,-80 73,-81 140,-98 88,-22 164,-28 265,-28 109,0 103,38 168,70 116,58 95,33 140,-56 33,-66 175,-84 238,-84 78,0 207,-14 307,-14 105,0 225,-10 322,14 87,22 130,42 223,42 61,15 134,75 224,98 85,21 148,28 237,28 75,0 150,0 224,0 65,0 46,-129 98,-168 52,-39 128,-92 196,-126 13,-6 0,-187 0,-209 0,-85 28,-107 28,-182 0,-86 -3,-137 42,-182 60,-60 137,-84 223,-84 79,0 139,28 224,28 48,0 78,86 98,126 16,33 150,28 195,28 70,0 140,0 210,0 76,0 94,42 168,42 101,0 128,-29 210,-70 53,-27 103,-112 139,-140 9,-6 19,-9 28,-14 56,-28 112,-84 154,-126 75,-74 85,-69 168,-28 88,44 101,70 209,70 58,0 113,-42 196,-42 69,0 42,106 42,168 0,91 157,-17 168,-28 75,-75 50,-114 154,-140 77,-19 137,-12 195,-41 73,-37 135,6 182,41 31,23 49,140 70,182 21,43 112,81 154,112 66,50 76,82 111,154 38,74 96,77 126,154 26,65 42,162 42,237 0,67 12,146 28,210 18,70 75,99 126,168 46,61 102,91 140,167 29,58 201,155 251,168 90,23 110,66 140,126 30,60 42,122 42,196 0,105 -14,97 -98,139 -48,25 -157,28 -223,28 -99,0 -105,35 -168,98 -57,57 -70,42 -70,154 0,62 60,88 98,126 15,15 34,179 42,195 42,86 140,-14 140,112 0,91 4,124 -56,154 -64,32 -39,125 -28,168 18,73 129,-14 154,84 15,61 0,146 0,209 0,70 -42,110 -42,182 0,48 134,28 181,28 75,0 87,-2 126,-42"/>
  <path class="fil1" d="M25645 38766l-168 96c10,16 18,35 34,47 11,14 25,26 34,42 10,17 16,37 34,49 5,4 9,10 15,15 0,5 0,10 0,15 -16,9 -7,4 -27,15 -12,16 -28,28 -32,49 -3,25 -9,49 -5,74 1,25 0,50 9,74 12,16 21,34 40,45 16,14 30,30 49,40 12,9 25,18 38,26 -9,10 -6,21 15,31 -2,1 -3,2 -4,3 12,22 29,40 45,59 18,13 38,14 59,17 8,16 7,35 9,53 -2,27 11,49 19,74 37,26 53,34 72,28 0,11 0,21 0,32 -1,25 1,51 -4,76 -8,21 -10,42 -28,58 -12,17 -24,35 -36,51 -14,25 -26,48 -34,76l176 -81c2,-30 21,-49 36,-72 11,-18 23,-33 35,-49 18,-19 19,-43 25,-66 3,-27 2,-54 2,-80 0,-26 0,-51 0,-77 3,-26 -2,-53 -4,-78 -6,-23 -27,-33 -43,-47 -18,-10 -35,-19 -53,-28 -18,-12 -38,-22 -57,-32 -9,-4 -17,-8 -27,-12 -10,-10 -21,-20 -32,-30 -15,-12 -29,-25 -45,-36 -18,-11 -33,-23 -49,-36 -16,-9 -25,-26 -36,-40 -7,-20 -7,-41 -8,-62l87 -53c-7,-15 -24,-26 -20,-47 0,-13 0,-25 0,-38 5,-4 8,-6 13,-9 -4,-8 -10,-14 -15,-19 -1,-5 0,-9 0,-14 -6,-28 -8,-55 -29,-77 -22,-20 -45,-41 -72,-57l-11 8c-2,-5 -4,-9 -7,-13z"/>
  <path class="fil0 str0" d="M25645 38766l-168 96c10,16 18,35 34,47 11,14 25,26 34,42 10,17 16,37 34,49 5,4 9,10 15,15 0,5 0,10 0,15 -16,9 -7,4 -27,15 -12,16 -28,28 -32,49 -3,25 -9,49 -5,74 1,25 0,50 9,74 12,16 21,34 40,45 16,14 30,30 49,40 12,9 25,18 38,26 -9,10 -6,21 15,31 -2,1 -3,2 -4,3 12,22 29,40 45,59 18,13 38,14 59,17 8,16 7,35 9,53 -2,27 11,49 19,74 37,26 53,34 72,28 0,11 0,21 0,32 -1,25 1,51 -4,76 -8,21 -10,42 -28,58 -12,17 -24,35 -36,51 -14,25 -26,48 -34,76l176 -81c2,-30 21,-49 36,-72 11,-18 23,-33 35,-49 18,-19 19,-43 25,-66 3,-27 2,-54 2,-80 0,-26 0,-51 0,-77 3,-26 -2,-53 -4,-78 -6,-23 -27,-33 -43,-47 -18,-10 -35,-19 -53,-28 -18,-12 -38,-22 -57,-32 -9,-4 -17,-8 -27,-12 -10,-10 -21,-20 -32,-30 -15,-12 -29,-25 -45,-36 -18,-11 -33,-23 -49,-36 -16,-9 -25,-26 -36,-40 -7,-20 -7,-41 -8,-62l87 -53c-7,-15 -24,-26 -20,-47 0,-13 0,-25 0,-38 5,-4 8,-6 13,-9 -4,-8 -10,-14 -15,-19 -1,-5 0,-9 0,-14 -6,-28 -8,-55 -29,-77 -22,-20 -45,-41 -72,-57l-11 8c-2,-5 -4,-9 -7,-13z"/>
  <path id="path67028" class="fil0 str0" d="M23223 28958c-5,6 -86,-97 -102,-129 -26,-52 -77,-97 -101,-129 -42,-56 -72,-97 -102,-157 -20,-40 -27,-76 -27,-129 0,-53 -57,-104 -74,-138 -21,-42 -40,-52 -65,-102 -27,-55 -51,-105 -64,-156 -14,-54 -51,-85 -65,-139 -10,-40 0,-96 0,-138 0,-46 0,-92 0,-138 0,-47 0,-93 0,-139"/>
  <path id="path67030" class="fil0 str0" d="M24680 30240c0,-65 73,111 120,157 59,59 128,91 184,148 25,25 101,64 139,73 50,13 57,41 74,74 2,6 12,0 18,0"/>
  <path id="path67032" class="fil0 str0" d="M28508 32380c16,33 244,-9 295,-9 37,0 71,43 101,74 29,28 77,28 111,37 19,4 23,32 37,46"/>
  <path id="path67034" class="fil0 str0" d="M32551 34327c7,1 10,115 18,147 9,33 82,80 93,102 24,47 27,91 64,129 39,38 34,91 46,138 12,48 10,97 10,148 0,65 -32,80 -56,129 -19,38 -45,52 -64,92 -17,32 -55,73 -74,92 -32,32 -28,54 -28,111 0,60 8,108 37,147 9,12 120,0 138,0 34,0 28,106 28,129 0,54 -4,91 -18,120 -20,39 -47,44 -47,102 0,49 0,98 0,147 0,51 16,108 28,157 13,51 46,63 46,120 0,25 0,49 0,74"/>
  <path id="path67036" class="fil0 str0" d="M27318 40505c0,67 106,-81 166,-110 59,-30 112,-62 175,-74 59,-12 48,-46 120,-46 56,0 116,3 166,-9 71,-18 115,-45 166,-83 53,-40 69,-63 129,-93 54,-27 108,-40 157,-64 51,-26 66,-49 129,-65 62,-15 139,5 194,19 45,11 110,0 156,0 59,0 92,0 120,-28 5,-5 13,-6 19,-9"/>
  <path id="path67038" class="fil0 str0" d="M25547 38771c7,-6 -112,-93 -129,-110 -30,-30 -46,-42 -46,-92 0,-51 4,-51 27,-74"/>
  <path id="path68075" class="fil2 str0" d="M22589 25377l-176 177 42 61 -67 79 25 152 12 73 -146 43 -110 133 49 74 55 6 103 -25 31 55 -55 73 18 341 6 134 -85 158 37 322c0,0 48,122 54,153 6,30 134,79 134,79l158 -37 104 -91 -37 -170c0,0 -6,-353 0,-384 6,-30 -12,-304 -12,-304l97 -183 0 -200 -36 -61 73 -201 -73 -134 -12 -164 -79 -43 -49 -48 -73 -37 12 -31z"/>
  <path id="path70137" class="fil2 str0" d="M23246 28931c-26,10 -38,40 -73,49 -26,6 4,76 12,85 17,16 73,24 98,36 44,22 33,24 42,73 13,64 -4,63 37,104 6,6 77,8 85,12 21,10 30,68 43,85 18,25 50,38 67,61 12,17 11,66 18,91 6,24 80,12 103,12 34,0 68,-1 98,7 23,5 42,18 79,18 39,0 44,25 67,48 19,20 94,7 121,7 36,0 72,1 104,-7 29,-7 45,-26 67,-42 25,-19 56,-37 91,-37 40,0 81,-12 122,-12 39,0 52,-21 73,-42 23,-24 51,-10 67,6 9,9 0,82 0,97 0,30 0,61 0,91 0,10 8,33 -7,61 -14,28 -17,48 7,79 37,50 36,49 36,110 0,38 35,21 12,67 -13,26 -35,47 -48,60 -13,13 -7,62 -7,86 0,34 3,60 13,79 17,35 95,1 103,-6 30,-30 13,-43 73,-43 45,0 79,7 104,-18 12,-13 15,-92 24,-110 15,-31 49,-38 61,-61 9,-19 0,-69 0,-91 0,-35 -6,-54 -6,-85 0,-35 0,-69 0,-103 0,-31 0,-61 0,-92 0,-34 -19,-59 -19,-97 0,-35 2,-63 -12,-91 -16,-33 -38,-40 -73,-49 -34,-9 -74,-12 -109,-12 -38,0 -59,-4 -80,-25 -17,-17 -79,-6 -103,-6 -42,0 -67,-17 -103,-24 -43,-9 -73,10 -116,18 -42,9 -59,7 -85,43 -24,32 -25,61 -67,61 -35,0 -62,-3 -91,12 -23,11 -58,6 -86,6 -34,0 -55,-19 -79,-37 -23,-17 -33,-18 -73,-18 -39,0 -67,-24 -85,-42 -18,-18 -37,-38 -55,-55 -22,-22 -24,-45 -24,-79 0,-28 -30,-46 -30,-79 0,-31 61,-12 6,-67 -25,-25 -36,-29 -49,-55 -15,-30 -61,-13 -79,-6 -23,9 -28,-15 -49,-43 -16,-22 -44,-36 -79,-36 -30,0 -61,0 -91,0 -21,0 -34,1 -55,6z"/>
  <path id="path73226" class="fil2 str0" d="M25242 30726c-26,-4 -60,0 -79,18 -30,30 19,68 30,73 11,5 15,63 25,73 24,25 80,17 109,25 26,6 31,43 37,67 0,0 83,6 91,6 15,0 66,19 85,24 34,8 53,24 92,24 35,0 77,1 103,-6 38,-9 44,-20 73,-6 29,15 -2,68 12,97 15,31 80,31 110,31 31,0 63,-1 91,6 27,7 64,0 91,0 42,0 37,36 37,73 0,32 0,65 0,97 0,37 18,61 42,86 22,21 53,32 73,42 17,9 23,53 37,67 32,32 44,59 85,79 28,14 75,19 98,25 11,2 6,78 6,91 0,10 73,34 79,36 26,14 68,6 97,6 3,0 32,64 37,74 11,23 16,45 24,79 7,30 47,36 79,48 22,9 67,0 91,0 11,0 68,43 79,49 26,13 64,-2 92,12 35,18 59,39 91,55 36,18 52,37 73,79 14,29 38,25 61,30 24,48 -8,59 49,73 37,10 63,5 73,43 5,22 26,45 42,61 25,25 54,30 92,30 30,0 60,0 91,0 37,0 60,-1 79,19 23,22 38,63 55,85 28,38 63,26 103,36 36,9 71,13 110,13 32,0 61,-38 67,-61 4,-20 43,-39 60,-43 31,-8 62,-6 86,0 35,9 24,28 24,67 0,44 -1,50 -24,73 -24,24 -41,28 -61,49 -25,25 19,88 30,103 22,30 64,31 97,31 37,0 60,-5 80,-25 29,-29 63,-24 103,-24 35,0 0,-69 0,-104 0,-34 5,-60 12,-91 4,-16 70,-44 79,-49 33,-16 31,-34 31,-73 0,-31 -25,-49 -37,-73 -10,-20 -42,-45 -61,-54 -31,-16 -72,-66 -91,-92 -20,-27 -26,-40 -43,-73 -17,-35 -46,-56 -66,-97 -8,-15 -34,-52 -49,-67 -22,-22 -26,-38 -49,-61 -21,-21 -52,-33 -73,-61 -21,-28 -38,-62 -67,-91 -19,-19 -35,-59 -48,-85 -19,-37 -44,-69 -61,-103 -14,-28 -50,-68 -67,-86 -32,-32 -68,-58 -104,-85 -31,-23 -40,-28 -60,-49 -24,-23 -57,-38 -73,-54 -20,-20 -24,-43 -43,-61 -23,-24 -27,-44 -49,-61 -24,-18 -40,-41 -55,-55 -28,-28 -30,-44 -30,-85 0,-30 0,-61 0,-91 0,-30 6,-61 0,-85 -6,-23 -62,-31 -85,-31 -33,0 -58,6 -91,6 -23,0 -48,41 -55,55 -11,22 -35,42 -49,61 -15,20 -12,53 -12,85 0,30 0,61 0,91 0,32 20,58 30,79 17,34 49,7 49,61 0,30 8,65 18,85 13,26 23,57 37,86 16,32 29,56 36,85 10,37 14,52 0,79 -13,27 -72,-24 -79,-31 -24,-24 -36,-48 -67,-79 -26,-26 -32,-33 -60,-54 -38,-28 -83,-46 -122,-61 -45,-18 -93,-41 -134,-61 -42,-21 -86,-34 -128,-55 -33,-17 -70,-28 -97,-55 -22,-22 -55,-33 -85,-48 -31,-16 -51,-27 -67,-43 -18,-18 -40,-31 -61,-36 -25,-7 -42,-25 -67,-31 -28,-7 -68,0 -97,0 -10,0 -21,0 -31,0 -19,0 -67,-43 -73,-48 -15,-16 -54,-19 -79,-19 -40,0 -63,4 -85,-18 -28,-28 -10,-69 12,-91 17,-17 -41,-49 -49,-55 -24,-19 -36,-18 -79,-18 -50,0 -64,3 -97,36 -20,20 -32,51 -49,67 -17,17 -66,3 -79,0 -17,-4 -41,-53 -49,-61 -22,-22 -54,-18 -73,-36 -15,-15 -58,-34 -73,-49 -17,-18 -44,-18 -73,-18 -30,0 -61,0 -91,0 -26,0 -17,-1 -49,18z"/>
  <path id="path75288" class="fil2 str0" d="M29142 32497c-17,13 -56,35 -85,42 -22,6 -18,57 -18,79 0,21 59,37 79,37 35,0 60,12 85,24 27,14 33,23 43,61 7,27 6,64 6,91 0,31 20,70 30,92 10,18 72,18 92,18 18,0 9,-44 61,-18 31,15 82,9 115,18 42,10 60,7 79,-12 35,-35 74,13 92,30 9,9 0,77 0,91 0,41 54,48 91,55 30,6 59,6 91,6 31,0 61,0 91,0 42,0 60,-1 80,19 15,15 6,70 6,91 0,40 16,74 30,103 13,26 46,56 61,67 17,13 99,0 122,0 35,0 54,-6 85,-6 19,0 49,37 61,49 20,20 59,16 85,42 25,26 57,39 79,61 26,26 40,38 73,55 39,19 69,26 110,37 28,7 68,0 97,0 23,0 66,34 85,48 31,23 52,40 73,67 21,28 27,57 55,85 22,22 77,35 109,43 35,9 65,22 98,30 30,8 47,30 55,61 7,31 41,49 66,55 40,10 72,17 98,43 16,15 43,36 67,48 21,11 68,7 91,12 26,7 64,0 91,0 41,0 81,0 122,0 35,0 54,7 85,7 21,0 47,48 61,66 22,29 -12,49 43,49 35,0 68,-2 97,12 28,14 56,4 85,19 29,14 56,33 91,42 32,8 67,12 98,24 30,13 48,19 85,19 42,0 64,-13 79,-43 12,-24 49,-41 67,-55 18,-13 115,45 18,13 -13,-5 31,2 43,-7 18,-14 32,-31 55,-48 28,-22 42,-9 42,-55 0,-28 54,-42 67,-55 11,-11 14,-65 18,-73 11,-21 51,-33 61,-55 12,-22 6,-57 6,-85 0,-28 12,-57 12,-91 0,-30 1,-64 7,-85 10,-42 29,-38 12,-73 -11,-21 -60,-31 -86,-31 -26,0 -53,48 -73,67 -25,26 -28,37 -66,37 -30,0 -31,46 -31,73 0,44 -1,46 -30,61 -30,15 -43,54 -49,79 -7,29 1,64 -6,91 -7,26 -29,47 -43,61 -25,25 -28,24 -73,24 -32,0 -65,0 -97,0 -31,0 -61,0 -91,0 -31,0 -61,0 -92,0 -20,0 -46,-24 -85,-24 -32,0 -65,0 -97,0 -31,0 -61,0 -91,0 -45,0 -52,-9 -73,-31 -16,-15 -30,-40 -37,-54 -11,-23 -42,-42 -67,-61 -22,-17 -60,-44 -79,-55 -31,-19 -47,-22 -67,-43 -20,-20 -78,-28 -109,-36 -37,-9 -60,10 -92,-6 -25,-13 -41,-35 -54,-49 -23,-22 -38,-15 -19,-55 15,-30 24,-37 6,-73 -11,-22 -75,-18 -97,-18 -34,0 -69,0 -103,0 -43,0 -57,-4 -86,-18 -32,-16 -24,-44 -24,-79 0,-46 -63,-59 -97,-73 -30,-12 -66,-36 -92,-49 -31,-16 -48,-26 -91,-43 -33,-13 -41,-24 -79,-24 -53,0 -64,-8 -103,-18 -69,-17 18,-53 42,-61 53,-18 -49,-58 -67,-61 -32,-5 -74,-35 -97,-49 -23,-14 -37,-24 -55,-42 -30,-31 -41,-17 -49,-49 -8,-33 73,-12 98,-36 34,-35 -33,-72 -49,-80 -33,-16 -69,-12 -109,-12 -40,0 -65,4 -92,25 -19,14 -75,-8 -85,-13 -22,-11 -45,-30 -61,-42 -23,-18 -55,-12 -85,-12 -30,0 -61,0 -91,0 -40,0 -43,-46 -43,-73 0,-38 -23,-36 -48,-55 -24,-17 -120,0 -147,0 -24,0 -64,-32 -85,-43 -23,-11 -33,-33 -48,-48 -18,-18 -27,-35 -37,-55 -17,-33 -60,-40 -103,-49 -31,-6 -46,-29 -73,-36 -31,-8 -49,-13 -86,-13 -34,0 -69,0 -103,0 -12,1 -24,1 -37,1z"/>
  <path id="path58713" class="fil0 str0" d="M30772 33306c0,31 0,-60 0,-91 0,-33 14,-62 28,-90 14,-27 28,-50 34,-74 8,-32 -18,-60 -28,-80 -14,-27 -41,-57 -57,-73 -16,-17 -31,-48 -45,-63 -19,-19 16,-78 22,-91 17,-34 47,-40 57,-79 7,-28 66,-72 85,-91 31,-31 47,-57 57,-97 8,-31 -1,-55 11,-79 15,-30 60,-60 86,-85 23,-24 58,-41 79,-57 32,-24 69,-29 102,-45 37,-19 47,-34 91,-34 32,0 57,-12 91,-12 18,0 65,-48 74,-57 22,-22 90,-56 119,-68 33,-13 78,-49 102,-73 23,-23 59,-37 80,-57 18,-19 54,-32 68,-46 24,-24 81,-7 113,6 35,14 64,17 102,17 28,0 58,11 91,11 31,0 61,0 91,0 57,0 114,0 170,0 59,0 118,0 176,0 41,0 72,3 108,12 34,8 70,87 91,108 16,16 43,33 68,45 33,17 73,58 102,80 34,25 61,36 97,62 24,18 52,78 57,102 7,38 38,67 56,85 16,16 57,13 80,17 29,6 59,6 91,6 45,0 91,0 136,0 35,0 71,6 108,6 37,0 64,18 96,34 37,18 57,40 91,57 28,14 57,19 91,28 33,8 82,11 114,11 45,0 69,4 90,-17 27,-26 35,-54 69,-79 31,-24 70,-56 102,-68 33,-14 59,-17 96,-17 43,0 77,2 114,11 34,8 34,24 34,62 0,28 11,55 11,86 0,29 -1,58 6,85 7,28 5,58 11,85 4,13 0,32 0,45 12,48 91,-7 91,63 0,43 86,59 119,79 10,6 19,12 29,17 34,21 49,11 62,63 10,39 14,59 46,91 15,15 28,84 28,113 0,35 -1,82 6,108 2,7 119,14 130,17 13,3 56,83 63,97 15,30 46,42 74,62 19,14 16,67 22,91 7,25 0,59 0,85 0,37 25,67 51,80 23,11 78,-37 97,-46 34,-17 57,-30 74,-62 18,-36 25,-84 40,-120 14,-36 25,-48 51,-73 23,-24 44,-32 85,-40 47,-10 56,-29 113,-29 42,0 48,43 57,80 6,22 52,23 74,23 30,0 60,0 91,0 22,0 66,-32 96,-40 38,-10 39,-18 68,11 27,27 31,61 46,91 12,24 31,43 51,63 30,30 72,-9 108,-17 42,-11 51,-29 96,-29 37,0 67,-7 91,17 24,24 39,58 46,85 3,15 -44,55 -51,63 -20,19 -34,37 -40,62 -7,26 0,64 0,91 0,30 0,61 0,91 0,28 0,57 0,85 0,28 0,57 0,85 0,30 0,61 0,91 0,30 0,61 0,91 0,16 0,96 0,45 0,-1 14,85 91,85 35,0 68,12 79,34 11,23 11,67 17,91 10,41 29,30 29,80 0,41 0,83 0,125 0,39 -4,59 -12,91 -3,14 -33,38 -40,51 -19,38 7,70 23,102 16,32 20,61 34,96 10,26 6,58 6,85 0,27 -45,63 -57,74 -25,25 -64,17 -102,17 -36,0 -83,-24 -114,-39 -30,-16 -66,-34 -90,-46 -37,-18 -90,-11 -137,-11 -36,0 -72,0 -107,0 -38,0 -40,11 -63,34 -20,20 -17,55 -17,91 0,34 0,68 0,102 0,43 0,87 0,130 0,26 34,63 45,86 19,36 58,69 97,79 23,6 -46,81 -51,85 -25,19 -65,17 -97,17 -23,0 -39,32 -45,57 -7,26 -20,36 -28,68 -9,33 -25,65 -46,85 -27,27 -56,29 -96,29 -53,0 -94,-8 -142,-17 -32,-7 -53,-17 -91,-17 -21,0 -52,46 -68,62 -19,19 -25,42 -40,57 -22,22 -119,-14 -136,-23 -22,-11 -40,-57 -51,-68 -26,-26 -25,-38 -63,-57 -51,-25 -73,22 -91,46 -24,33 15,40 -28,62 -31,15 -70,-12 -91,-23 -26,-13 -47,-41 -68,-62 -28,-28 12,-70 23,-91 15,-31 58,-32 73,-62 17,-33 -15,-73 -28,-85 -21,-22 -52,-52 -68,-74 -16,-21 -41,-48 -57,-68 -18,-25 -29,-41 -45,-57 -25,-24 28,-63 34,-68 24,-25 0,-58 -17,-63 -27,-6 -73,1 -91,6 -49,12 -53,-16 -63,-62 -5,-29 -22,-50 -28,-74 -5,-20 -37,-42 -57,-51 -34,-18 -62,-23 -96,11 -30,29 -70,47 -97,74 -26,26 -47,25 -79,17 -31,-8 -64,-35 -80,-51 -22,-22 -29,-43 -56,-57 -26,-13 -95,0 -125,0 -37,0 -40,-11 -63,-23 -31,-15 -54,-17 -91,-17 -34,0 -79,62 -90,85 -13,26 -61,38 -80,57 -16,16 -54,23 -79,23 -36,0 -54,2 -74,-17 -19,-19 -43,-39 -68,-51 -29,-15 -103,0 -137,0 -42,0 -62,0 -90,28 -39,38 -45,29 -74,0 -24,-24 -25,-43 -51,-57 -39,-19 -75,-22 -120,-22 -22,0 -33,1 -51,5 -41,0 -62,40 -79,57 -5,5 -30,9 -40,11"/>
  <path id="path76319" class="fil0 str0" d="M32812 35296c-16,20 -60,18 -98,18 -20,0 -40,0 -61,0"/>
  <path id="path77359" class="fil2 str0" d="M32866 36393c-20,12 -80,32 -119,42 -20,5 -46,80 -49,91 -7,30 0,73 0,104 0,33 25,63 35,84 11,22 0,80 0,105 0,14 -61,73 -69,91 -16,32 -14,59 -14,98 0,43 -29,63 -56,70 -32,8 -57,28 -77,49 -24,24 -41,21 -84,21 -36,0 -73,-1 -105,7 -45,11 -51,11 -84,28 -23,11 -85,0 -112,0 -39,0 -79,0 -118,0 -9,0 -61,29 -84,35 -41,10 -76,-34 -98,-56 -21,-21 -37,-37 -56,-56 -25,-25 -29,-32 -63,-49 -29,-15 -53,-14 -91,-14 -40,0 -79,0 -119,0 -40,0 -65,14 -105,14 -40,0 -55,19 -91,28 -31,8 -48,14 -90,14 -35,0 -68,7 -105,7 -29,0 -42,41 -49,56 -12,24 -93,-33 -98,-35 -33,-17 -17,-35 -70,-35 -36,0 -48,20 -63,49 -10,21 -53,53 -70,70 -14,14 -7,71 -7,97 0,55 3,52 -42,63 -42,11 -77,-14 -104,-28 -27,-13 -42,-55 -56,-70 -18,-17 -77,-17 -98,-28 -24,-11 -82,3 -105,7 -36,8 -63,7 -98,7 -32,0 -47,31 -63,63 -19,39 -31,60 -56,84 -31,31 -56,8 -56,63 0,16 57,44 63,70 13,50 -12,55 -35,77 -40,41 11,97 42,105 49,12 49,19 49,77 0,37 8,71 14,97 8,31 0,74 0,105 0,35 0,70 0,105 0,35 0,70 0,105 0,22 -64,76 -70,84 -20,27 -28,64 -42,91 -17,36 -34,42 -34,84 0,53 -9,57 -42,90 -34,34 -57,50 -84,77 -8,8 -6,99 -7,105 -12,48 -15,43 -56,84 -34,34 -55,66 -91,84 -40,20 -60,-10 -91,21 -24,24 -39,58 -56,91 -21,42 -59,54 -105,77 -24,12 -43,45 -49,69 -9,38 -1,59 7,91 9,36 14,65 14,105 0,35 0,70 0,105 0,40 0,79 0,119 0,22 -10,24 -21,35 0,10 -112,7 -125,7 -33,0 -46,32 -63,56 -17,22 -60,14 -91,14 -38,0 -75,0 -112,0 -43,0 -65,31 -84,69 -10,20 -26,59 -35,77 -15,30 -33,50 -49,70 -31,42 26,42 56,42 32,0 70,7 105,7 44,0 56,-35 77,-56 17,-17 82,-16 105,-28 33,-16 67,-37 104,-56 21,-10 82,-3 98,-7 37,-9 85,-46 119,-63 29,-14 64,-18 98,-35 42,-21 87,-46 126,-55 7,-2 38,-76 42,-84 15,-31 14,-75 14,-112 0,-35 0,-70 0,-105 0,-42 -21,-53 -21,-91 0,-39 0,-71 14,-98 13,-26 62,-48 90,-56 26,-6 56,-33 77,-49 18,-13 7,-84 7,-104 0,-47 -6,-72 28,-105 30,-30 57,-43 84,-70 11,-11 32,-84 35,-98 13,-51 13,-48 49,-84 31,-31 53,-69 91,-98 29,-22 45,-27 56,-70 10,-41 13,-61 28,-90 19,-38 40,-64 49,-98 8,-36 8,-60 21,-84 10,-21 75,-45 98,-56 39,-20 102,-7 146,-7 38,0 75,0 112,0 26,0 51,0 77,0 34,0 28,-64 28,-98 0,-9 -70,-39 -77,-42 -22,-11 -79,0 -105,0 -21,0 -43,-28 -84,-28 -42,0 -44,32 -84,42 -29,7 -79,-2 -97,-7 -5,-1 0,-122 0,-140 0,-51 -8,-70 49,-70 49,0 97,0 146,0 47,0 94,0 140,0 73,0 66,-18 105,-70 21,-27 73,-42 112,-42 38,0 67,-19 98,-41 41,-31 66,-71 119,-84 29,-8 82,-55 104,-77 20,-20 54,-37 77,-49 41,-20 91,-14 140,-14 48,0 83,17 126,28 47,12 74,28 126,28 35,0 70,0 104,0 41,0 104,52 140,70 60,30 124,32 161,70 29,29 51,74 63,104 15,38 103,70 133,77 42,11 65,-8 91,-21 32,-16 56,-31 90,-49 40,-19 93,-71 119,-97 34,-34 53,-42 105,-42 42,0 84,0 126,0 47,0 93,0 140,0 43,0 69,-14 98,-28 32,-16 21,-72 21,-105 0,-27 35,-55 35,-98 0,-44 20,-54 20,-98 0,-35 -2,-80 -6,-105 -7,-34 -55,-58 -77,-70 -32,-16 -34,-44 -42,-76 -10,-40 -15,-50 -35,-77 -29,-38 -35,-24 -35,-84 0,-13 -58,-47 -63,-49 -29,-14 -21,-67 -21,-98 0,-47 -4,-71 -14,-112 -11,-43 -40,-47 -49,-84 -9,-36 -3,-68 -14,-91 -8,-16 -39,6 -56,15z"/>
  <path id="path80448" class="fil2 str0" d="M25522 38793c-71,2 -85,29 -85,116 0,6 116,69 127,85 8,9 -65,81 -74,117 -15,62 0,87 0,148 0,33 62,75 85,106 23,31 92,50 117,74 33,34 30,94 63,127 37,37 37,43 53,106 8,32 21,107 21,170 0,11 -90,69 -95,74 -56,56 65,42 95,42 81,0 89,-6 106,-74 10,-38 42,-79 74,-95 79,-40 75,-93 75,-170 0,-36 -11,-97 -11,-148 0,-74 13,-83 -32,-127 -32,-32 -69,-49 -95,-74 -43,-43 -53,-59 -106,-85 -46,-23 -68,-45 -106,-64 -54,-27 -25,-77 11,-95 37,-19 90,-40 116,-53 48,-24 -58,-90 -95,-127 -33,-33 -36,-68 -64,-96 -37,-37 -161,28 -180,43z"/>
  <path id="path58717_1_" class="fil0 str0" d="M36137 33526c14,29 0,-65 0,-97 0,-39 -8,-60 -17,-96 -6,-22 -28,-45 -34,-68 -7,-30 -6,-60 -6,-91 0,-41 -4,-65 -17,-91 -12,-24 -18,-49 -28,-74 -16,-39 -29,-36 -29,-85 0,-39 28,-48 63,-57 28,-7 60,11 85,17 25,6 59,0 85,0 22,0 70,-46 91,-62 30,-23 53,-29 96,-29 53,0 100,40 154,40 37,0 53,13 79,0 28,-14 35,-29 51,-45 12,-12 20,-62 29,-80 15,-30 78,-45 107,-51 36,-7 82,-36 120,-45 33,-9 49,-59 62,-85 16,-32 17,-55 40,-86 28,-38 80,-51 113,-85 40,-39 120,-50 120,-108 0,-35 -4,-56 -12,-85 -6,-25 0,-59 0,-85 0,-20 62,-46 74,-62 9,-13 0,-69 0,-86 0,-45 8,-47 40,-79 20,-20 45,-23 68,-40 27,-20 62,21 83,0 12,-12 56,13 81,0 24,-12 2,-111 25,-133 23,-23 141,-18 159,-71 12,-61 -72,-81 -71,-111 3,-48 -96,-68 -98,-116 -13,-63 247,-113 282,-123 53,-3 116,0 151,5 56,10 120,45 164,60 61,20 84,-44 119,-35 25,6 193,-33 211,-3 36,61 -58,114 -38,149 13,38 49,43 66,60 22,22 156,11 184,11 70,10 93,-95 141,-68 50,27 -55,259 -53,309 2,33 72,145 76,177 7,73 -171,235 -151,196 -40,54 -7,95 15,84 33,-17 68,-39 90,-61 36,-36 39,-35 96,-35 38,0 11,-11 45,-3 4,1 37,8 41,8 34,0 63,-16 96,-8 43,11 57,5 68,48 9,36 -20,54 6,80 21,21 72,48 97,63 20,12 34,55 45,74 16,25 17,49 17,85 0,32 0,64 0,96 0,30 0,61 0,91 0,10 0,19 0,29 0,32 33,39 63,39 43,0 -9,54 -17,63 -20,19 -39,18 -46,45 -6,26 1,61 6,80 7,28 0,67 0,96 0,39 6,67 28,97 21,27 17,49 17,85 0,30 0,60 0,91 0,24 17,53 17,85 0,41 -2,54 17,74 18,17 63,-17 80,-17 10,0 6,84 6,90 0,38 5,57 22,74 20,20 73,29 102,29 36,0 65,9 97,17 7,1 29,63 34,73 27,55 86,91 125,120 22,16 10,59 0,79 -16,31 -52,46 -74,68 -26,26 -23,73 -23,108 0,18 57,39 74,51 30,22 65,28 97,34 27,6 59,6 90,6 33,0 62,7 86,-17 32,-33 53,-43 79,-17 20,20 17,78 23,102 8,34 15,65 22,97 7,26 35,58 46,79 15,30 41,59 57,85 16,28 35,49 68,57 34,9 86,1 119,-6 30,-6 73,0 102,6 34,7 64,21 97,34 32,13 22,50 22,80 0,32 0,67 6,96 6,28 0,62 0,91 0,40 65,51 91,51 36,0 72,0 108,0 32,0 64,0 96,0 34,0 68,0 102,0 39,0 51,0 74,23 17,16 28,60 34,85 1,4 0,8 0,11 0,37 40,59 40,103 0,32 -6,50 -6,85 0,24 0,49 0,74"/>
  <path id="path58719_2_" class="fil0 str0" d="M38439 31282c-13,-13 -3,-97 -16,-114 -14,-18 85,-86 70,-106 -19,-25 -34,-20 -34,-57 0,-17 45,-27 45,-62 0,-20 -47,-53 -56,-63 -25,-24 -49,-43 -69,-62 -18,-18 -17,-50 -17,-80 0,-52 1,-68 29,-96 19,-19 -28,-73 -34,-85 -14,-27 -17,-38 -17,-80 0,-37 20,-53 28,-85 5,-18 26,-52 34,-68 12,-23 17,-53 17,-80 0,-20 47,-52 57,-62 8,-9 0,-72 0,-85 0,-30 0,-61 0,-91 0,-17 -36,-53 -45,-63 -24,-23 8,-59 17,-68 25,-25 30,-56 45,-85 11,-23 23,-47 23,-74 0,-28 0,-56 0,-85 0,-39 -22,-45 -46,-62 -21,-16 -44,-34 -56,-51 -8,-10 42,-59 51,-68 16,-16 19,-59 22,-74 6,-23 18,-52 23,-74 11,-42 21,-72 29,-102 10,-42 22,-42 -6,-80 -12,-16 53,-52 57,-56 20,-21 -29,-62 -35,-69 -14,-19 -18,-24 -11,-51"/>
 </g>
</svg>
